G04*
G04 #@! TF.GenerationSoftware,Altium Limited,Altium Designer,22.1.2 (22)*
G04*
G04 Layer_Color=16711935*
%FSLAX24Y24*%
%MOIN*%
G70*
G04*
G04 #@! TF.SameCoordinates,F367158F-93D5-41CE-9AE3-167B46B4E197*
G04*
G04*
G04 #@! TF.FilePolarity,Negative*
G04*
G01*
G75*
%ADD27R,0.0530X0.0530*%
%ADD28C,0.0530*%
%ADD29R,0.0629X0.0629*%
%ADD30C,0.0629*%
%ADD31C,0.1431*%
%ADD32O,0.1431X0.1431*%
%ADD33C,0.0730*%
%ADD34R,0.0730X0.0730*%
%ADD35C,0.0330*%
D27*
X10550Y4200D02*
D03*
D28*
Y5200D02*
D03*
Y4700D02*
D03*
D29*
X12776Y11100D02*
D03*
D30*
X13957D02*
D03*
X15138D02*
D03*
X16319D02*
D03*
X17500D02*
D03*
X12776Y9919D02*
D03*
X13957D02*
D03*
X15138D02*
D03*
X16319D02*
D03*
X17500D02*
D03*
D31*
X13626Y12801D02*
D03*
D32*
X16650D02*
D03*
D33*
X1800Y8900D02*
D03*
X18800Y900D02*
D03*
Y1900D02*
D03*
Y4900D02*
D03*
Y3900D02*
D03*
Y2900D02*
D03*
Y9900D02*
D03*
Y6900D02*
D03*
Y8900D02*
D03*
Y7900D02*
D03*
Y5900D02*
D03*
X800D02*
D03*
Y2900D02*
D03*
Y3900D02*
D03*
Y4900D02*
D03*
Y1900D02*
D03*
Y900D02*
D03*
Y7900D02*
D03*
Y8900D02*
D03*
Y6900D02*
D03*
D34*
Y9900D02*
D03*
X1800D02*
D03*
D35*
X4400Y8700D02*
D03*
Y9600D02*
D03*
X15250Y2850D02*
D03*
X16900Y9550D02*
D03*
X15250Y5350D02*
D03*
X12500Y6250D02*
D03*
X12100Y3400D02*
D03*
X4811Y7500D02*
D03*
X3500Y11450D02*
D03*
Y9950D02*
D03*
X15250Y7350D02*
D03*
X11050Y7329D02*
D03*
X12100Y1250D02*
D03*
X10750Y1650D02*
D03*
X2150Y1600D02*
D03*
X14650Y850D02*
D03*
X2550Y8000D02*
D03*
X10400Y6300D02*
D03*
X11050Y6550D02*
D03*
X11700Y6800D02*
D03*
X6450Y1000D02*
D03*
X6800Y10150D02*
D03*
X3350Y6700D02*
D03*
M02*
