M48
;Layer_Color=9474304
;FILE_FORMAT=2:4
INCH,LZ
;TYPE=PLATED
T1F00S00C0.0100
T2F00S00C0.0310
T3F00S00C0.0402
T4F00S00C0.0433
;TYPE=NON_PLATED
T5F00S00C0.1181
%
T01
X00215Y0016
X00645Y001
X01075Y00165
X0121Y00125
Y0034
X0125Y00625
X0117Y0068
X01105Y00655
Y007329
X0104Y0063
X01525Y00535
Y00735
Y00285
X01465Y00085
X004811Y0075
X0044Y0087
Y0096
X0035Y00995
Y01145
X00255Y008
X00335Y0067
X0068Y01015
X0169Y00955
T02
X01055Y0042
Y0047
Y0052
T03
X012776Y009919
Y0111
X013957
Y009919
X015138
Y0111
X016319
X0175
Y009919
X016319
T04
X0008Y0009
Y0019
Y0029
Y0039
Y0049
Y0059
Y0069
Y0079
Y0089
X0018
Y0099
X0008
X0188
Y0089
Y0079
Y0069
Y0059
Y0049
Y0039
Y0029
Y0019
Y0009
T05
X013626Y012801
X01665
M30
