G04*
G04 #@! TF.GenerationSoftware,Altium Limited,Altium Designer,22.1.2 (22)*
G04*
G04 Layer_Color=16711935*
%FSLAX24Y24*%
%MOIN*%
G70*
G04*
G04 #@! TF.SameCoordinates,F367158F-93D5-41CE-9AE3-167B46B4E197*
G04*
G04*
G04 #@! TF.FilePolarity,Positive*
G04*
G01*
G75*
%ADD12C,0.0100*%
%ADD58C,0.0000*%
%ADD59C,0.0060*%
D12*
X21425Y14500D02*
X21625Y13900D01*
X21225D02*
X21425Y14500D01*
X21225Y600D02*
X21425Y0D01*
X21625Y600D01*
X21425Y8250D02*
Y14500D01*
Y0D02*
Y5930D01*
X19700Y14500D02*
X21525D01*
X19700Y0D02*
X21525D01*
X0Y16300D02*
X600Y16500D01*
X0Y16300D02*
X600Y16100D01*
X19000D02*
X19600Y16300D01*
X19000Y16500D02*
X19600Y16300D01*
X0D02*
X8480D01*
X10800D02*
X19600D01*
X0Y14600D02*
Y16400D01*
X19600Y14600D02*
Y16400D01*
D58*
X0Y0D02*
X19600D01*
Y14500D01*
X0D02*
X19600D01*
X0Y0D02*
Y14500D01*
Y0D02*
X19600D01*
Y14500D01*
X0D02*
X19600D01*
X0Y0D02*
Y14500D01*
D59*
X21785Y6090D02*
Y6290D01*
Y6190D01*
X21185D01*
X21285Y6090D01*
X21785Y6590D02*
X21685D01*
Y6690D01*
X21785D01*
Y6590D01*
Y7390D02*
X21185D01*
X21485Y7090D01*
Y7490D01*
X21185Y8090D02*
Y7690D01*
X21485D01*
X21385Y7890D01*
Y7990D01*
X21485Y8090D01*
X21685D01*
X21785Y7990D01*
Y7790D01*
X21685Y7690D01*
X8640Y15940D02*
X8840D01*
X8740D01*
Y16540D01*
X8640Y16440D01*
X9140Y15940D02*
Y16040D01*
X9240D01*
Y15940D01*
X9140D01*
X9640Y16040D02*
X9740Y15940D01*
X9940D01*
X10040Y16040D01*
Y16440D01*
X9940Y16540D01*
X9740D01*
X9640Y16440D01*
Y16340D01*
X9740Y16240D01*
X10040D01*
X10640Y16540D02*
X10440Y16440D01*
X10240Y16240D01*
Y16040D01*
X10340Y15940D01*
X10540D01*
X10640Y16040D01*
Y16140D01*
X10540Y16240D01*
X10240D01*
M02*
