G04*
G04 #@! TF.GenerationSoftware,Altium Limited,Altium Designer,22.1.2 (22)*
G04*
G04 Layer_Physical_Order=1*
G04 Layer_Color=255*
%FSLAX24Y24*%
%MOIN*%
G70*
G04*
G04 #@! TF.SameCoordinates,F367158F-93D5-41CE-9AE3-167B46B4E197*
G04*
G04*
G04 #@! TF.FilePolarity,Positive*
G04*
G01*
G75*
%ADD12C,0.0100*%
%ADD36R,0.0433X0.0472*%
%ADD37R,0.0217X0.0472*%
%ADD38R,0.0400X0.0600*%
%ADD39R,0.0600X0.0400*%
%ADD40R,0.0194X0.0118*%
%ADD41R,0.0610X0.0217*%
%ADD42R,0.2205X0.0610*%
%ADD43R,0.0551X0.1299*%
%ADD44R,0.0827X0.0551*%
%ADD45R,0.0433X0.1024*%
%ADD46C,0.0080*%
%ADD47C,0.0200*%
%ADD48C,0.0500*%
%ADD49R,0.0450X0.0450*%
%ADD50C,0.0450*%
%ADD51R,0.0549X0.0549*%
%ADD52C,0.0549*%
%ADD53C,0.1351*%
%ADD54O,0.1351X0.1351*%
%ADD55C,0.0650*%
%ADD56R,0.0650X0.0650*%
%ADD57C,0.0250*%
D12*
X4800Y8700D02*
Y8800D01*
Y9600D02*
Y10500D01*
X17750Y3950D02*
Y9100D01*
X14557Y10500D02*
X16347D01*
X17747Y9100D01*
X16250Y8900D02*
X16900Y9550D01*
X17747Y9100D02*
X17750D01*
X11482Y2782D02*
X12100Y3400D01*
X10741Y2782D02*
X11482D01*
X4438Y7050D02*
X4860D01*
X4870Y7040D01*
X4105Y7570D02*
X4520D01*
X4750Y7800D02*
X5300D01*
X4520Y7570D02*
X4750Y7800D01*
X4729Y7500D02*
X4811D01*
X3829Y7294D02*
X4105Y7570D01*
X3882Y10950D02*
X5541D01*
X3874Y10942D02*
X3882Y10950D01*
X5541D02*
X5600Y10891D01*
Y10500D02*
Y10891D01*
X3874Y10559D02*
Y10942D01*
X3815Y10500D02*
X3874Y10559D01*
X3185Y10500D02*
X3815D01*
X3126Y10559D02*
X3185Y10500D01*
X3126Y10559D02*
Y10942D01*
X3500D02*
Y11450D01*
Y9950D02*
X3832D01*
X11050Y7329D02*
X12021Y8300D01*
X12950D01*
X15250Y6813D02*
Y7350D01*
Y6813D02*
X15263Y6800D01*
X12950Y5750D02*
Y6800D01*
Y4750D02*
Y5750D01*
X13750Y3600D02*
X14437D01*
X3874Y9780D02*
Y9942D01*
X3782Y7247D02*
X3819D01*
X3829Y7256D02*
Y7294D01*
X3819Y7247D02*
X3829Y7256D01*
X15550Y2150D02*
X15600Y2200D01*
X12100Y1250D02*
X12700D01*
X12726Y1276D01*
X10750Y1027D02*
Y1650D01*
X2150Y1027D02*
Y1600D01*
X14650Y850D02*
Y1614D01*
X14614Y1650D02*
X14650Y1614D01*
X18150Y1250D02*
X18800Y1900D01*
X15750Y1250D02*
X18150D01*
X3832Y9900D02*
X3874Y9942D01*
X6450Y1000D02*
X7141D01*
X5759D02*
X6450D01*
X3444Y9350D02*
X3874Y9780D01*
X2800Y9350D02*
X3444D01*
X2800D02*
Y10050D01*
X2200Y10650D02*
X2800Y10050D01*
X1050Y10650D02*
X2200D01*
X2550Y8000D02*
X2809Y8259D01*
Y8541D01*
X2800Y8550D02*
X2809Y8541D01*
X5000Y8000D02*
X5600Y8600D01*
X4200Y8000D02*
X5000D01*
X10100Y6000D02*
Y8424D01*
X10400Y6300D02*
X11900Y7800D01*
X13350D01*
X11050Y6550D02*
X12100Y7600D01*
X13850D01*
X11700Y6800D02*
X12950D01*
X13350Y7800D02*
X13750Y8200D01*
X13850Y7600D02*
X14450Y8200D01*
X13050Y7400D02*
X14450D01*
X12950Y7300D02*
X13050Y7400D01*
X14450D02*
X15250Y8200D01*
X13750D02*
Y8400D01*
X14450Y9100D02*
X15500D01*
X13750Y8400D02*
X14450Y9100D01*
X15500D02*
X16319Y9919D01*
X14450Y8400D02*
X14950Y8900D01*
X14450Y8200D02*
Y8400D01*
X14950Y8900D02*
X16250D01*
X12950Y6800D02*
Y7300D01*
X15400Y8050D02*
X15400D01*
X15250Y8200D02*
X15400Y8050D01*
X15850Y2050D02*
X17750Y3950D01*
X15750Y2050D02*
Y2200D01*
Y2050D02*
X15850D01*
X15550Y2074D02*
Y2150D01*
X15500Y2024D02*
X15550Y2074D01*
X12726Y2024D02*
X13886D01*
X15500D01*
X15600Y2200D02*
X15741D01*
X7159Y2782D02*
X10741D01*
X6105Y2545D02*
X6600Y2050D01*
X12700D01*
X12726Y1276D02*
X13886D01*
X12700Y2050D02*
X12726Y2024D01*
X2159Y2782D02*
X5741D01*
Y1018D02*
X5759Y1000D01*
X7141D02*
X7159Y1018D01*
X5979Y2682D02*
X6105Y2556D01*
Y2545D02*
Y2556D01*
X7882Y10850D02*
X10350D01*
X13250Y13750D02*
X17500D01*
X10350Y10850D02*
X13250Y13750D01*
X6800Y10831D02*
X6819Y10850D01*
X6800Y10150D02*
Y10831D01*
X2700Y6700D02*
X3350D01*
X2550Y6800D02*
X2600Y6750D01*
X3350Y6200D02*
Y6700D01*
X800Y10400D02*
X1050Y10650D01*
X800Y9900D02*
Y10400D01*
X13957Y11100D02*
X14557Y10500D01*
X13750Y6800D02*
X14437D01*
X18651Y900D02*
X18800D01*
X17500Y13750D02*
X18100Y13150D01*
Y10519D02*
Y13150D01*
X17500Y9919D02*
X18100Y10519D01*
X5600Y8600D02*
Y8700D01*
D36*
X14437Y3600D02*
D03*
X15263D02*
D03*
X14423Y4763D02*
D03*
X15250D02*
D03*
X15263Y6800D02*
D03*
X14437D02*
D03*
D37*
X3874Y10942D02*
D03*
X3500D02*
D03*
X3126D02*
D03*
Y9958D02*
D03*
X3874D02*
D03*
D38*
X13750Y4750D02*
D03*
X12950D02*
D03*
X13750Y3600D02*
D03*
X12950D02*
D03*
X13750Y5750D02*
D03*
X12950D02*
D03*
X3350Y6200D02*
D03*
X4150D02*
D03*
X15250Y8300D02*
D03*
X14450D02*
D03*
X12950D02*
D03*
X13750D02*
D03*
X12950Y6800D02*
D03*
X13750D02*
D03*
X3450Y8000D02*
D03*
X4250D02*
D03*
X4800Y10500D02*
D03*
X5600D02*
D03*
X4800Y8700D02*
D03*
X5600D02*
D03*
X4800Y9600D02*
D03*
X5600D02*
D03*
D39*
X11600Y5200D02*
D03*
Y4400D02*
D03*
X12700Y1250D02*
D03*
Y2050D02*
D03*
X2700Y7500D02*
D03*
Y6700D02*
D03*
X2800Y9350D02*
D03*
Y8550D02*
D03*
X15750Y1250D02*
D03*
Y2050D02*
D03*
X5550Y7700D02*
D03*
Y6900D02*
D03*
D40*
X4438Y7050D02*
D03*
X3782Y6853D02*
D03*
Y7050D02*
D03*
Y7247D02*
D03*
X4438D02*
D03*
Y6853D02*
D03*
D41*
X13886Y2024D02*
D03*
Y1276D02*
D03*
X14614Y1650D02*
D03*
D42*
X7900Y7997D02*
D03*
Y6403D02*
D03*
D43*
X8898Y9400D02*
D03*
X7402D02*
D03*
D44*
X10741Y2782D02*
D03*
Y1018D02*
D03*
X7159D02*
D03*
Y2782D02*
D03*
X5741D02*
D03*
Y1018D02*
D03*
X2159D02*
D03*
Y2782D02*
D03*
D45*
X7882Y10850D02*
D03*
X6819D02*
D03*
D46*
X9350Y4250D02*
Y5450D01*
X9900Y3700D02*
X10800D01*
X9350Y4250D02*
X9900Y3700D01*
X11070Y4720D02*
X12280D01*
X10550Y4200D02*
X11070Y4720D01*
X10550Y4700D02*
X10584D01*
X10764Y4880D02*
X12520D01*
X10584Y4700D02*
X10764Y4880D01*
X12280Y4720D02*
X12750Y4250D01*
X12650Y4750D02*
X12950D01*
X12520Y4880D02*
X12650Y4750D01*
X15250Y2850D02*
X15263Y2863D01*
Y3600D01*
X15250Y4783D02*
Y5350D01*
X12500Y6000D02*
Y6250D01*
X11700Y5200D02*
X12500Y6000D01*
X3764Y6871D02*
X3782Y6853D01*
X3635Y6871D02*
X3764D01*
X3300Y7206D02*
X3635Y6871D01*
X3300Y7206D02*
Y7500D01*
X3450Y7650D01*
X2700Y7500D02*
X3300D01*
X3450Y7650D02*
Y8000D01*
X4438Y7247D02*
X4476D01*
X4697Y7468D01*
X4778D01*
X4811Y7500D01*
X10550Y5200D02*
X11600D01*
X15250Y4763D02*
Y4783D01*
X11600Y5200D02*
X11700D01*
X11500Y4400D02*
X11600D01*
X10800Y3700D02*
X11500Y4400D01*
X12750Y4250D02*
X14737D01*
X12250Y4400D02*
X12950Y3700D01*
X11600Y4400D02*
X12250D01*
X12950Y3600D02*
Y3700D01*
X15250Y4744D02*
Y4763D01*
X15073Y4567D02*
X15250Y4744D01*
X15054Y4567D02*
X15073D01*
X14737Y4250D02*
X15054Y4567D01*
X13750Y5750D02*
X14283D01*
X15250Y4783D01*
X13750Y4750D02*
X14410D01*
D47*
X4400Y9600D02*
X4800D01*
X4400Y8700D02*
X4800D01*
D48*
X4870Y7040D02*
X5260D01*
X5897Y6403D01*
X16839Y11750D02*
X17489Y11100D01*
X17500D01*
X12100Y11750D02*
X16839D01*
X9750Y9400D02*
X12100Y11750D01*
X4410Y5940D02*
Y6630D01*
X4900Y5450D02*
X9350D01*
X4410Y5940D02*
X4900Y5450D01*
X5897Y6403D02*
X7900D01*
X5600Y8700D02*
X6303Y7997D01*
X7900D01*
Y8528D01*
X7402Y9026D02*
Y9400D01*
Y9026D02*
X7900Y8528D01*
X9350Y5450D02*
X9900Y6000D01*
Y8224D02*
X10100Y8424D01*
X12756Y11080D01*
X8898Y9400D02*
X9750D01*
X9900Y6000D02*
Y8224D01*
X5600Y9600D02*
Y10500D01*
Y8700D02*
Y9600D01*
D49*
X10550Y4200D02*
D03*
D50*
Y5200D02*
D03*
Y4700D02*
D03*
D51*
X12776Y11100D02*
D03*
D52*
X13957D02*
D03*
X15138D02*
D03*
X16319D02*
D03*
X17500D02*
D03*
X12776Y9919D02*
D03*
X13957D02*
D03*
X15138D02*
D03*
X16319D02*
D03*
X17500D02*
D03*
D53*
X13626Y12801D02*
D03*
D54*
X16650D02*
D03*
D55*
X1800Y8900D02*
D03*
X18800Y900D02*
D03*
Y1900D02*
D03*
Y4900D02*
D03*
Y3900D02*
D03*
Y2900D02*
D03*
Y9900D02*
D03*
Y6900D02*
D03*
Y8900D02*
D03*
Y7900D02*
D03*
Y5900D02*
D03*
X800D02*
D03*
Y2900D02*
D03*
Y3900D02*
D03*
Y4900D02*
D03*
Y1900D02*
D03*
Y900D02*
D03*
Y7900D02*
D03*
Y8900D02*
D03*
Y6900D02*
D03*
D56*
Y9900D02*
D03*
X1800D02*
D03*
D57*
X4400Y8700D02*
D03*
Y9600D02*
D03*
X15250Y2850D02*
D03*
X16900Y9550D02*
D03*
X15250Y5350D02*
D03*
X12500Y6250D02*
D03*
X12100Y3400D02*
D03*
X4811Y7500D02*
D03*
X3500Y11450D02*
D03*
Y9950D02*
D03*
X15250Y7350D02*
D03*
X11050Y7329D02*
D03*
X12100Y1250D02*
D03*
X10750Y1650D02*
D03*
X2150Y1600D02*
D03*
X14650Y850D02*
D03*
X2550Y8000D02*
D03*
X10400Y6300D02*
D03*
X11050Y6550D02*
D03*
X11700Y6800D02*
D03*
X6450Y1000D02*
D03*
X6800Y10150D02*
D03*
X3350Y6700D02*
D03*
M02*
