G04*
G04 #@! TF.GenerationSoftware,Altium Limited,Altium Designer,22.1.2 (22)*
G04*
G04 Layer_Color=8388736*
%FSLAX24Y24*%
%MOIN*%
G70*
G04*
G04 #@! TF.SameCoordinates,F367158F-93D5-41CE-9AE3-167B46B4E197*
G04*
G04*
G04 #@! TF.FilePolarity,Negative*
G04*
G01*
G75*
%ADD17R,0.0513X0.0552*%
%ADD18R,0.0297X0.0552*%
%ADD19R,0.0480X0.0680*%
%ADD20R,0.0680X0.0480*%
%ADD21R,0.0274X0.0198*%
%ADD22R,0.0690X0.0297*%
%ADD23R,0.2285X0.0690*%
%ADD24R,0.0631X0.1379*%
%ADD25R,0.0907X0.0631*%
%ADD26R,0.0513X0.1104*%
%ADD27R,0.0530X0.0530*%
%ADD28C,0.0530*%
%ADD29R,0.0629X0.0629*%
%ADD30C,0.0629*%
%ADD31C,0.1431*%
%ADD32O,0.1431X0.1431*%
%ADD33C,0.0730*%
%ADD34R,0.0730X0.0730*%
%ADD35C,0.0330*%
D17*
X14437Y3600D02*
D03*
X15263D02*
D03*
X14423Y4763D02*
D03*
X15250D02*
D03*
X15263Y6800D02*
D03*
X14437D02*
D03*
D18*
X3874Y10942D02*
D03*
X3500D02*
D03*
X3126D02*
D03*
Y9958D02*
D03*
X3874D02*
D03*
D19*
X13750Y4750D02*
D03*
X12950D02*
D03*
X13750Y3600D02*
D03*
X12950D02*
D03*
X13750Y5750D02*
D03*
X12950D02*
D03*
X3350Y6200D02*
D03*
X4150D02*
D03*
X15250Y8300D02*
D03*
X14450D02*
D03*
X12950D02*
D03*
X13750D02*
D03*
X12950Y6800D02*
D03*
X13750D02*
D03*
X3450Y8000D02*
D03*
X4250D02*
D03*
X4800Y10500D02*
D03*
X5600D02*
D03*
X4800Y8700D02*
D03*
X5600D02*
D03*
X4800Y9600D02*
D03*
X5600D02*
D03*
D20*
X11600Y5200D02*
D03*
Y4400D02*
D03*
X12700Y1250D02*
D03*
Y2050D02*
D03*
X2700Y7500D02*
D03*
Y6700D02*
D03*
X2800Y9350D02*
D03*
Y8550D02*
D03*
X15750Y1250D02*
D03*
Y2050D02*
D03*
X5550Y7700D02*
D03*
Y6900D02*
D03*
D21*
X4438Y7050D02*
D03*
X3782Y6853D02*
D03*
Y7050D02*
D03*
Y7247D02*
D03*
X4438D02*
D03*
Y6853D02*
D03*
D22*
X13886Y2024D02*
D03*
Y1276D02*
D03*
X14614Y1650D02*
D03*
D23*
X7900Y7997D02*
D03*
Y6403D02*
D03*
D24*
X8898Y9400D02*
D03*
X7402D02*
D03*
D25*
X10741Y2782D02*
D03*
Y1018D02*
D03*
X7159D02*
D03*
Y2782D02*
D03*
X5741D02*
D03*
Y1018D02*
D03*
X2159D02*
D03*
Y2782D02*
D03*
D26*
X7882Y10850D02*
D03*
X6819D02*
D03*
D27*
X10550Y4200D02*
D03*
D28*
Y5200D02*
D03*
Y4700D02*
D03*
D29*
X12776Y11100D02*
D03*
D30*
X13957D02*
D03*
X15138D02*
D03*
X16319D02*
D03*
X17500D02*
D03*
X12776Y9919D02*
D03*
X13957D02*
D03*
X15138D02*
D03*
X16319D02*
D03*
X17500D02*
D03*
D31*
X13626Y12801D02*
D03*
D32*
X16650D02*
D03*
D33*
X1800Y8900D02*
D03*
X18800Y900D02*
D03*
Y1900D02*
D03*
Y4900D02*
D03*
Y3900D02*
D03*
Y2900D02*
D03*
Y9900D02*
D03*
Y6900D02*
D03*
Y8900D02*
D03*
Y7900D02*
D03*
Y5900D02*
D03*
X800D02*
D03*
Y2900D02*
D03*
Y3900D02*
D03*
Y4900D02*
D03*
Y1900D02*
D03*
Y900D02*
D03*
Y7900D02*
D03*
Y8900D02*
D03*
Y6900D02*
D03*
D34*
Y9900D02*
D03*
X1800D02*
D03*
D35*
X4400Y8700D02*
D03*
Y9600D02*
D03*
X15250Y2850D02*
D03*
X16900Y9550D02*
D03*
X15250Y5350D02*
D03*
X12500Y6250D02*
D03*
X12100Y3400D02*
D03*
X4811Y7500D02*
D03*
X3500Y11450D02*
D03*
Y9950D02*
D03*
X15250Y7350D02*
D03*
X11050Y7329D02*
D03*
X12100Y1250D02*
D03*
X10750Y1650D02*
D03*
X2150Y1600D02*
D03*
X14650Y850D02*
D03*
X2550Y8000D02*
D03*
X10400Y6300D02*
D03*
X11050Y6550D02*
D03*
X11700Y6800D02*
D03*
X6450Y1000D02*
D03*
X6800Y10150D02*
D03*
X3350Y6700D02*
D03*
M02*
