G04*
G04 #@! TF.GenerationSoftware,Altium Limited,Altium Designer,22.1.2 (22)*
G04*
G04 Layer_Physical_Order=2*
G04 Layer_Color=16711680*
%FSLAX24Y24*%
%MOIN*%
G70*
G04*
G04 #@! TF.SameCoordinates,13F10832-5DC3-450C-8784-A5B9C6AB751A*
G04*
G04*
G04 #@! TF.FilePolarity,Positive*
G04*
G01*
G75*
%ADD14C,0.0100*%
%ADD17C,0.0000*%
%ADD18C,0.0060*%
%ADD47R,0.0549X0.0549*%
%ADD48C,0.0549*%
%ADD49C,0.1351*%
%ADD50O,0.1351X0.1351*%
%ADD51C,0.0650*%
%ADD52R,0.0650X0.0650*%
%ADD53C,0.0250*%
G36*
X19500Y834D02*
X19500Y102D01*
X9042D01*
X100Y125D01*
Y14400D01*
X19500D01*
Y834D01*
D02*
G37*
%LPC*%
G36*
X13696Y13516D02*
X13556D01*
X13417Y13489D01*
X13287Y13435D01*
X13170Y13357D01*
X13070Y13257D01*
X12992Y13140D01*
X12938Y13010D01*
X12910Y12871D01*
Y12730D01*
X12938Y12592D01*
X12992Y12462D01*
X13070Y12345D01*
X13170Y12245D01*
X13287Y12167D01*
X13417Y12113D01*
X13556Y12085D01*
X13696D01*
X13835Y12113D01*
X13965Y12167D01*
X14082Y12245D01*
X14182Y12345D01*
X14260Y12462D01*
X14314Y12592D01*
X14342Y12730D01*
Y12871D01*
X14314Y13010D01*
X14260Y13140D01*
X14182Y13257D01*
X14082Y13357D01*
X13965Y13435D01*
X13835Y13489D01*
X13696Y13516D01*
D02*
G37*
G36*
X16650Y13520D02*
X16509Y13506D01*
X16374Y13465D01*
X16250Y13399D01*
X16141Y13309D01*
X16052Y13200D01*
X15985Y13076D01*
X15944Y12941D01*
X15931Y12801D01*
Y12801D01*
X15944Y12660D01*
X15985Y12526D01*
X16052Y12401D01*
X16141Y12292D01*
X16250Y12203D01*
X16374Y12136D01*
X16509Y12096D01*
X16650Y12082D01*
X16790Y12096D01*
X16925Y12136D01*
X17049Y12203D01*
X17158Y12292D01*
X17247Y12401D01*
X17314Y12526D01*
X17355Y12660D01*
X17369Y12801D01*
Y12801D01*
X17355Y12941D01*
X17314Y13076D01*
X17247Y13200D01*
X17158Y13309D01*
X17049Y13399D01*
X16925Y13465D01*
X16790Y13506D01*
X16650Y13520D01*
D02*
G37*
G36*
X3550Y11523D02*
Y11350D01*
X3723D01*
X3691Y11427D01*
X3627Y11491D01*
X3550Y11523D01*
D02*
G37*
G36*
X3450D02*
X3373Y11491D01*
X3309Y11427D01*
X3277Y11350D01*
X3450D01*
Y11523D01*
D02*
G37*
G36*
X3723Y11250D02*
X3550D01*
Y11077D01*
X3627Y11109D01*
X3691Y11173D01*
X3723Y11250D01*
D02*
G37*
G36*
X3450D02*
X3277D01*
X3309Y11173D01*
X3373Y11109D01*
X3450Y11077D01*
Y11250D01*
D02*
G37*
G36*
X17541Y11415D02*
X17459D01*
X17379Y11393D01*
X17307Y11352D01*
X17248Y11293D01*
X17207Y11221D01*
X17185Y11141D01*
Y11059D01*
X17207Y10979D01*
X17248Y10907D01*
X17307Y10848D01*
X17379Y10807D01*
X17459Y10785D01*
X17541D01*
X17621Y10807D01*
X17693Y10848D01*
X17752Y10907D01*
X17793Y10979D01*
X17815Y11059D01*
Y11141D01*
X17793Y11221D01*
X17752Y11293D01*
X17693Y11352D01*
X17621Y11393D01*
X17541Y11415D01*
D02*
G37*
G36*
X13998D02*
X13915D01*
X13835Y11393D01*
X13763Y11352D01*
X13705Y11293D01*
X13663Y11221D01*
X13642Y11141D01*
Y11059D01*
X13663Y10979D01*
X13705Y10907D01*
X13763Y10848D01*
X13835Y10807D01*
X13915Y10785D01*
X13998D01*
X14078Y10807D01*
X14150Y10848D01*
X14209Y10907D01*
X14250Y10979D01*
X14271Y11059D01*
Y11141D01*
X14250Y11221D01*
X14209Y11293D01*
X14150Y11352D01*
X14078Y11393D01*
X13998Y11415D01*
D02*
G37*
G36*
X13090D02*
X12461D01*
Y10785D01*
X13090D01*
Y11415D01*
D02*
G37*
G36*
X15188Y10293D02*
Y9969D01*
X15512D01*
X15487Y10064D01*
X15438Y10149D01*
X15368Y10219D01*
X15282Y10268D01*
X15188Y10293D01*
D02*
G37*
G36*
X12826D02*
Y9969D01*
X13150D01*
X13125Y10064D01*
X13075Y10149D01*
X13006Y10219D01*
X12920Y10268D01*
X12826Y10293D01*
D02*
G37*
G36*
X12726D02*
X12631Y10268D01*
X12546Y10219D01*
X12476Y10149D01*
X12426Y10064D01*
X12401Y9969D01*
X12726D01*
Y10293D01*
D02*
G37*
G36*
X18856Y10325D02*
X18850D01*
Y9950D01*
X19225D01*
Y9956D01*
X19196Y10064D01*
X19140Y10161D01*
X19061Y10240D01*
X18964Y10296D01*
X18856Y10325D01*
D02*
G37*
G36*
X18750D02*
X18744D01*
X18636Y10296D01*
X18539Y10240D01*
X18460Y10161D01*
X18404Y10064D01*
X18375Y9956D01*
Y9950D01*
X18750D01*
Y10325D01*
D02*
G37*
G36*
X15179Y11415D02*
X15096D01*
X15016Y11393D01*
X14945Y11352D01*
X14886Y11293D01*
X14845Y11221D01*
X14823Y11141D01*
Y11059D01*
X14845Y10979D01*
X14886Y10907D01*
X14945Y10848D01*
X15016Y10807D01*
X15046Y10799D01*
Y10576D01*
X14314Y9844D01*
X14269Y9870D01*
X14271Y9877D01*
Y9960D01*
X14250Y10040D01*
X14209Y10112D01*
X14150Y10171D01*
X14078Y10212D01*
X13998Y10234D01*
X13915D01*
X13835Y10212D01*
X13763Y10171D01*
X13705Y10112D01*
X13663Y10040D01*
X13642Y9960D01*
Y9877D01*
X13663Y9797D01*
X13679Y9771D01*
X12185Y8277D01*
X12165Y8247D01*
X12158Y8212D01*
Y3441D01*
X12157Y3440D01*
X12110Y3393D01*
X12085Y3333D01*
Y3267D01*
X12110Y3207D01*
X12157Y3160D01*
X12217Y3135D01*
X12260D01*
X14493Y902D01*
X14485Y883D01*
Y817D01*
X14510Y757D01*
X14557Y710D01*
X14617Y685D01*
X14683D01*
X14743Y710D01*
X14790Y757D01*
X14815Y817D01*
Y883D01*
X14790Y943D01*
X14743Y990D01*
X14683Y1015D01*
X14640D01*
X12407Y3248D01*
X12415Y3267D01*
Y3333D01*
X12390Y3393D01*
X12343Y3440D01*
X12342Y3441D01*
Y8174D01*
X13809Y9641D01*
X13835Y9626D01*
X13915Y9604D01*
X13998D01*
X14006Y9606D01*
X14030Y9572D01*
X14033Y9562D01*
X14015Y9535D01*
X14008Y9500D01*
Y7000D01*
X14015Y6965D01*
X14035Y6935D01*
X15086Y5885D01*
X15085Y5883D01*
Y5817D01*
X15110Y5757D01*
X15157Y5710D01*
X15217Y5685D01*
X15283D01*
X15285Y5686D01*
X15658Y5312D01*
Y3000D01*
X15665Y2965D01*
X15685Y2935D01*
X17785Y835D01*
X17815Y815D01*
X17850Y808D01*
X18447D01*
X18460Y759D01*
X18508Y676D01*
X18576Y608D01*
X18659Y560D01*
X18752Y535D01*
X18848D01*
X18941Y560D01*
X19024Y608D01*
X19092Y676D01*
X19140Y759D01*
X19165Y852D01*
Y948D01*
X19140Y1041D01*
X19092Y1124D01*
X19024Y1192D01*
X18941Y1240D01*
X18848Y1265D01*
X18752D01*
X18659Y1240D01*
X18576Y1192D01*
X18508Y1124D01*
X18460Y1041D01*
X18447Y992D01*
X17888D01*
X15842Y3038D01*
Y5350D01*
X15835Y5385D01*
X15815Y5415D01*
X15414Y5815D01*
X15415Y5817D01*
Y5883D01*
X15390Y5943D01*
X15343Y5990D01*
X15283Y6015D01*
X15217D01*
X15215Y6014D01*
X14192Y7038D01*
Y9462D01*
X14722Y9992D01*
X14738Y9983D01*
X14755Y9969D01*
X15088D01*
Y10301D01*
X15074Y10319D01*
X15065Y10335D01*
X15203Y10473D01*
X15223Y10503D01*
X15230Y10538D01*
Y10799D01*
X15259Y10807D01*
X15331Y10848D01*
X15390Y10907D01*
X15431Y10979D01*
X15452Y11059D01*
Y11141D01*
X15431Y11221D01*
X15390Y11293D01*
X15331Y11352D01*
X15259Y11393D01*
X15179Y11415D01*
D02*
G37*
G36*
X4450Y9823D02*
Y9650D01*
X4623D01*
X4591Y9727D01*
X4527Y9791D01*
X4450Y9823D01*
D02*
G37*
G36*
X4350D02*
X4273Y9791D01*
X4209Y9727D01*
X4177Y9650D01*
X4350D01*
Y9823D01*
D02*
G37*
G36*
X17541Y10234D02*
X17459D01*
X17379Y10212D01*
X17307Y10171D01*
X17248Y10112D01*
X17207Y10040D01*
X17185Y9960D01*
Y9877D01*
X17207Y9797D01*
X17248Y9726D01*
X17307Y9667D01*
X17379Y9626D01*
X17459Y9604D01*
X17541D01*
X17621Y9626D01*
X17693Y9667D01*
X17752Y9726D01*
X17793Y9797D01*
X17815Y9877D01*
Y9960D01*
X17793Y10040D01*
X17752Y10112D01*
X17693Y10171D01*
X17621Y10212D01*
X17541Y10234D01*
D02*
G37*
G36*
X16360D02*
X16277D01*
X16197Y10212D01*
X16126Y10171D01*
X16067Y10112D01*
X16026Y10040D01*
X16004Y9960D01*
Y9877D01*
X16026Y9797D01*
X16067Y9726D01*
X16126Y9667D01*
X16197Y9626D01*
X16277Y9604D01*
X16360D01*
X16440Y9626D01*
X16512Y9667D01*
X16571Y9726D01*
X16612Y9797D01*
X16634Y9877D01*
Y9960D01*
X16612Y10040D01*
X16571Y10112D01*
X16512Y10171D01*
X16440Y10212D01*
X16360Y10234D01*
D02*
G37*
G36*
X15512Y9869D02*
X15188D01*
Y9544D01*
X15282Y9570D01*
X15368Y9619D01*
X15438Y9689D01*
X15487Y9774D01*
X15512Y9869D01*
D02*
G37*
G36*
X13150D02*
X12826D01*
Y9544D01*
X12920Y9570D01*
X13006Y9619D01*
X13075Y9689D01*
X13125Y9774D01*
X13150Y9869D01*
D02*
G37*
G36*
X15088D02*
X14763D01*
X14789Y9774D01*
X14838Y9689D01*
X14908Y9619D01*
X14993Y9570D01*
X15088Y9544D01*
Y9869D01*
D02*
G37*
G36*
X12726D02*
X12401D01*
X12426Y9774D01*
X12476Y9689D01*
X12546Y9619D01*
X12631Y9570D01*
X12726Y9544D01*
Y9869D01*
D02*
G37*
G36*
X2165Y10265D02*
X1435D01*
Y9535D01*
X2165D01*
Y10265D01*
D02*
G37*
G36*
X1165D02*
X435D01*
Y9535D01*
X1165D01*
Y10265D01*
D02*
G37*
G36*
X19225Y9850D02*
X18850D01*
Y9475D01*
X18856D01*
X18964Y9504D01*
X19061Y9560D01*
X19140Y9639D01*
X19196Y9736D01*
X19225Y9844D01*
Y9850D01*
D02*
G37*
G36*
X18750D02*
X18375D01*
Y9844D01*
X18404Y9736D01*
X18460Y9639D01*
X18539Y9560D01*
X18636Y9504D01*
X18744Y9475D01*
X18750D01*
Y9850D01*
D02*
G37*
G36*
X16360Y11415D02*
X16277D01*
X16197Y11393D01*
X16126Y11352D01*
X16067Y11293D01*
X16026Y11221D01*
X16004Y11141D01*
Y11059D01*
X16026Y10979D01*
X16067Y10907D01*
X16126Y10848D01*
X16197Y10807D01*
X16277Y10785D01*
X16360D01*
X16440Y10807D01*
X16467Y10822D01*
X16808Y10481D01*
Y9691D01*
X16807Y9690D01*
X16760Y9643D01*
X16735Y9583D01*
Y9517D01*
X16760Y9457D01*
X16807Y9410D01*
X16867Y9385D01*
X16933D01*
X16993Y9410D01*
X17040Y9457D01*
X17065Y9517D01*
Y9583D01*
X17040Y9643D01*
X16993Y9690D01*
X16992Y9691D01*
Y10519D01*
X16985Y10554D01*
X16965Y10584D01*
X16597Y10952D01*
X16612Y10979D01*
X16634Y11059D01*
Y11141D01*
X16612Y11221D01*
X16571Y11293D01*
X16512Y11352D01*
X16440Y11393D01*
X16360Y11415D01*
D02*
G37*
G36*
X4623Y9550D02*
X4450D01*
Y9377D01*
X4527Y9409D01*
X4591Y9473D01*
X4623Y9550D01*
D02*
G37*
G36*
X4350D02*
X4177D01*
X4209Y9473D01*
X4273Y9409D01*
X4350Y9377D01*
Y9550D01*
D02*
G37*
G36*
X1856Y9325D02*
X1850D01*
Y8950D01*
X2225D01*
Y8956D01*
X2196Y9064D01*
X2140Y9161D01*
X2061Y9240D01*
X1964Y9296D01*
X1856Y9325D01*
D02*
G37*
G36*
X1750D02*
X1744D01*
X1636Y9296D01*
X1539Y9240D01*
X1460Y9161D01*
X1404Y9064D01*
X1375Y8956D01*
Y8950D01*
X1750D01*
Y9325D01*
D02*
G37*
G36*
X18848Y9265D02*
X18752D01*
X18659Y9240D01*
X18576Y9192D01*
X18508Y9124D01*
X18460Y9041D01*
X18435Y8948D01*
Y8852D01*
X18460Y8759D01*
X18508Y8676D01*
X18576Y8608D01*
X18659Y8560D01*
X18752Y8535D01*
X18848D01*
X18941Y8560D01*
X19024Y8608D01*
X19092Y8676D01*
X19140Y8759D01*
X19165Y8852D01*
Y8948D01*
X19140Y9041D01*
X19092Y9124D01*
X19024Y9192D01*
X18941Y9240D01*
X18848Y9265D01*
D02*
G37*
G36*
X848D02*
X752D01*
X659Y9240D01*
X576Y9192D01*
X508Y9124D01*
X460Y9041D01*
X435Y8948D01*
Y8852D01*
X460Y8759D01*
X508Y8676D01*
X576Y8608D01*
X659Y8560D01*
X752Y8535D01*
X848D01*
X941Y8560D01*
X1024Y8608D01*
X1092Y8676D01*
X1140Y8759D01*
X1165Y8852D01*
Y8948D01*
X1140Y9041D01*
X1092Y9124D01*
X1024Y9192D01*
X941Y9240D01*
X848Y9265D01*
D02*
G37*
G36*
X2225Y8850D02*
X1850D01*
Y8475D01*
X1856D01*
X1964Y8504D01*
X2061Y8560D01*
X2140Y8639D01*
X2196Y8736D01*
X2225Y8844D01*
Y8850D01*
D02*
G37*
G36*
X1750D02*
X1375D01*
Y8844D01*
X1404Y8736D01*
X1460Y8639D01*
X1539Y8560D01*
X1636Y8504D01*
X1744Y8475D01*
X1750D01*
Y8850D01*
D02*
G37*
G36*
X2600Y8223D02*
Y8050D01*
X2773D01*
X2741Y8127D01*
X2677Y8191D01*
X2600Y8223D01*
D02*
G37*
G36*
X2500D02*
X2423Y8191D01*
X2359Y8127D01*
X2327Y8050D01*
X2500D01*
Y8223D01*
D02*
G37*
G36*
X2773Y7950D02*
X2600D01*
Y7777D01*
X2677Y7809D01*
X2741Y7873D01*
X2773Y7950D01*
D02*
G37*
G36*
X2500D02*
X2327D01*
X2359Y7873D01*
X2423Y7809D01*
X2500Y7777D01*
Y7950D01*
D02*
G37*
G36*
X4820Y7764D02*
Y7591D01*
X4993D01*
X4961Y7668D01*
X4897Y7731D01*
X4820Y7764D01*
D02*
G37*
G36*
X4720D02*
X4643Y7731D01*
X4579Y7668D01*
X4547Y7591D01*
X4720D01*
Y7764D01*
D02*
G37*
G36*
X18848Y8265D02*
X18752D01*
X18659Y8240D01*
X18576Y8192D01*
X18508Y8124D01*
X18460Y8041D01*
X18435Y7948D01*
Y7852D01*
X18460Y7759D01*
X18508Y7676D01*
X18576Y7608D01*
X18659Y7560D01*
X18752Y7535D01*
X18848D01*
X18941Y7560D01*
X19024Y7608D01*
X19092Y7676D01*
X19140Y7759D01*
X19165Y7852D01*
Y7948D01*
X19140Y8041D01*
X19092Y8124D01*
X19024Y8192D01*
X18941Y8240D01*
X18848Y8265D01*
D02*
G37*
G36*
X848D02*
X752D01*
X659Y8240D01*
X576Y8192D01*
X508Y8124D01*
X460Y8041D01*
X435Y7948D01*
Y7852D01*
X460Y7759D01*
X508Y7676D01*
X576Y7608D01*
X659Y7560D01*
X752Y7535D01*
X848D01*
X941Y7560D01*
X1024Y7608D01*
X1092Y7676D01*
X1140Y7759D01*
X1165Y7852D01*
Y7948D01*
X1140Y8041D01*
X1092Y8124D01*
X1024Y8192D01*
X941Y8240D01*
X848Y8265D01*
D02*
G37*
G36*
X15300Y7573D02*
Y7400D01*
X15473D01*
X15441Y7477D01*
X15377Y7541D01*
X15300Y7573D01*
D02*
G37*
G36*
X15200D02*
X15123Y7541D01*
X15059Y7477D01*
X15027Y7400D01*
X15200D01*
Y7573D01*
D02*
G37*
G36*
X4993Y7491D02*
X4820D01*
Y7318D01*
X4897Y7350D01*
X4961Y7413D01*
X4993Y7491D01*
D02*
G37*
G36*
X4720D02*
X4547D01*
X4579Y7413D01*
X4643Y7350D01*
X4720Y7318D01*
Y7491D01*
D02*
G37*
G36*
X15473Y7300D02*
X15300D01*
Y7127D01*
X15377Y7159D01*
X15441Y7223D01*
X15473Y7300D01*
D02*
G37*
G36*
X15200D02*
X15027D01*
X15059Y7223D01*
X15123Y7159D01*
X15200Y7127D01*
Y7300D01*
D02*
G37*
G36*
X3400Y6923D02*
Y6750D01*
X3573D01*
X3541Y6827D01*
X3477Y6891D01*
X3400Y6923D01*
D02*
G37*
G36*
X3300D02*
X3223Y6891D01*
X3159Y6827D01*
X3127Y6750D01*
X3300D01*
Y6923D01*
D02*
G37*
G36*
X6550Y10492D02*
X3800D01*
X3765Y10485D01*
X3735Y10465D01*
X3435Y10165D01*
X3415Y10135D01*
X3408Y10100D01*
Y10041D01*
X3407Y10040D01*
X3360Y9993D01*
X3335Y9933D01*
Y9867D01*
X3360Y9807D01*
X3407Y9760D01*
X3467Y9735D01*
X3533D01*
X3593Y9760D01*
X3640Y9807D01*
X3665Y9867D01*
Y9933D01*
X3640Y9993D01*
X3593Y10040D01*
X3614Y10084D01*
X3838Y10308D01*
X6512D01*
X6636Y10185D01*
X6635Y10183D01*
Y10117D01*
X6660Y10057D01*
X6707Y10010D01*
X6767Y9985D01*
X6833D01*
X6893Y10010D01*
X6940Y10057D01*
X6941Y10058D01*
X7812D01*
X10635Y7235D01*
X11114Y6756D01*
X11086Y6714D01*
X11083Y6715D01*
X11017D01*
X10957Y6690D01*
X10910Y6643D01*
X10885Y6583D01*
Y6517D01*
X10886Y6515D01*
X10606Y6236D01*
X10564Y6264D01*
X10565Y6267D01*
Y6333D01*
X10540Y6393D01*
X10493Y6440D01*
X10433Y6465D01*
X10367D01*
X10307Y6440D01*
X10260Y6393D01*
X10235Y6333D01*
Y6267D01*
X10236Y6265D01*
X5962Y1992D01*
X1153D01*
X1140Y2041D01*
X1092Y2124D01*
X1024Y2192D01*
X941Y2240D01*
X848Y2265D01*
X752D01*
X659Y2240D01*
X576Y2192D01*
X508Y2124D01*
X460Y2041D01*
X435Y1948D01*
Y1852D01*
X460Y1759D01*
X508Y1676D01*
X576Y1608D01*
X659Y1560D01*
X752Y1535D01*
X848D01*
X941Y1560D01*
X1024Y1608D01*
X1092Y1676D01*
X1140Y1759D01*
X1153Y1808D01*
X1969D01*
X1990Y1758D01*
X1959Y1727D01*
X1927Y1650D01*
X2373D01*
X2341Y1727D01*
X2310Y1758D01*
X2331Y1808D01*
X6000D01*
X6035Y1815D01*
X6065Y1835D01*
X10365Y6136D01*
X10367Y6135D01*
X10433D01*
X10436Y6136D01*
X10464Y6094D01*
X8171Y3801D01*
X8151Y3771D01*
X8144Y3736D01*
Y3724D01*
X5412Y992D01*
X1153D01*
X1140Y1041D01*
X1092Y1124D01*
X1024Y1192D01*
X941Y1240D01*
X848Y1265D01*
X752D01*
X659Y1240D01*
X576Y1192D01*
X508Y1124D01*
X460Y1041D01*
X435Y948D01*
Y852D01*
X460Y759D01*
X508Y676D01*
X576Y608D01*
X659Y560D01*
X752Y535D01*
X848D01*
X941Y560D01*
X1024Y608D01*
X1092Y676D01*
X1140Y759D01*
X1153Y808D01*
X5450D01*
X5485Y815D01*
X5515Y835D01*
X8301Y3621D01*
X8320Y3651D01*
X8327Y3686D01*
Y3698D01*
X11015Y6386D01*
X11017Y6385D01*
X11083D01*
X11143Y6410D01*
X11190Y6457D01*
X11215Y6517D01*
Y6583D01*
X11190Y6643D01*
X11170Y6663D01*
X11195Y6709D01*
X11200Y6708D01*
X11559D01*
X11560Y6707D01*
X11607Y6660D01*
X11667Y6635D01*
X11733D01*
X11793Y6660D01*
X11840Y6707D01*
X11865Y6767D01*
Y6833D01*
X11840Y6893D01*
X11793Y6940D01*
X11733Y6965D01*
X11667D01*
X11607Y6940D01*
X11560Y6893D01*
X11559Y6892D01*
X11238D01*
X11045Y7085D01*
X11065Y7135D01*
X11083D01*
X11143Y7160D01*
X11190Y7207D01*
X11215Y7267D01*
Y7333D01*
X11190Y7393D01*
X11143Y7440D01*
X11083Y7465D01*
X11017D01*
X10957Y7440D01*
X10910Y7393D01*
X10909Y7392D01*
X10738D01*
X7915Y10215D01*
X7885Y10235D01*
X7850Y10242D01*
X6941D01*
X6940Y10243D01*
X6893Y10290D01*
X6833Y10315D01*
X6767D01*
X6765Y10314D01*
X6615Y10465D01*
X6585Y10485D01*
X6550Y10492D01*
D02*
G37*
G36*
X18848Y7265D02*
X18752D01*
X18659Y7240D01*
X18576Y7192D01*
X18508Y7124D01*
X18460Y7041D01*
X18435Y6948D01*
Y6852D01*
X18460Y6759D01*
X18508Y6676D01*
X18576Y6608D01*
X18659Y6560D01*
X18752Y6535D01*
X18848D01*
X18941Y6560D01*
X19024Y6608D01*
X19092Y6676D01*
X19140Y6759D01*
X19165Y6852D01*
Y6948D01*
X19140Y7041D01*
X19092Y7124D01*
X19024Y7192D01*
X18941Y7240D01*
X18848Y7265D01*
D02*
G37*
G36*
X848D02*
X752D01*
X659Y7240D01*
X576Y7192D01*
X508Y7124D01*
X460Y7041D01*
X435Y6948D01*
Y6852D01*
X460Y6759D01*
X508Y6676D01*
X576Y6608D01*
X659Y6560D01*
X752Y6535D01*
X848D01*
X941Y6560D01*
X1024Y6608D01*
X1092Y6676D01*
X1140Y6759D01*
X1165Y6852D01*
Y6948D01*
X1140Y7041D01*
X1092Y7124D01*
X1024Y7192D01*
X941Y7240D01*
X848Y7265D01*
D02*
G37*
G36*
X3573Y6650D02*
X3400D01*
Y6477D01*
X3477Y6509D01*
X3541Y6573D01*
X3573Y6650D01*
D02*
G37*
G36*
X3300D02*
X3127D01*
X3159Y6573D01*
X3223Y6509D01*
X3300Y6477D01*
Y6650D01*
D02*
G37*
G36*
X18848Y6265D02*
X18752D01*
X18659Y6240D01*
X18576Y6192D01*
X18508Y6124D01*
X18460Y6041D01*
X18435Y5948D01*
Y5852D01*
X18460Y5759D01*
X18508Y5676D01*
X18576Y5608D01*
X18659Y5560D01*
X18752Y5535D01*
X18848D01*
X18941Y5560D01*
X19024Y5608D01*
X19092Y5676D01*
X19140Y5759D01*
X19165Y5852D01*
Y5948D01*
X19140Y6041D01*
X19092Y6124D01*
X19024Y6192D01*
X18941Y6240D01*
X18848Y6265D01*
D02*
G37*
G36*
X848D02*
X752D01*
X659Y6240D01*
X576Y6192D01*
X508Y6124D01*
X460Y6041D01*
X435Y5948D01*
Y5852D01*
X460Y5759D01*
X508Y5676D01*
X576Y5608D01*
X659Y5560D01*
X752Y5535D01*
X848D01*
X941Y5560D01*
X1024Y5608D01*
X1092Y5676D01*
X1140Y5759D01*
X1165Y5852D01*
Y5948D01*
X1140Y6041D01*
X1092Y6124D01*
X1024Y6192D01*
X941Y6240D01*
X848Y6265D01*
D02*
G37*
G36*
X18848Y5265D02*
X18752D01*
X18659Y5240D01*
X18576Y5192D01*
X18508Y5124D01*
X18460Y5041D01*
X18435Y4948D01*
Y4852D01*
X18460Y4759D01*
X18508Y4676D01*
X18576Y4608D01*
X18659Y4560D01*
X18752Y4535D01*
X18848D01*
X18941Y4560D01*
X19024Y4608D01*
X19092Y4676D01*
X19140Y4759D01*
X19165Y4852D01*
Y4948D01*
X19140Y5041D01*
X19092Y5124D01*
X19024Y5192D01*
X18941Y5240D01*
X18848Y5265D01*
D02*
G37*
G36*
X848D02*
X752D01*
X659Y5240D01*
X576Y5192D01*
X508Y5124D01*
X460Y5041D01*
X435Y4948D01*
Y4852D01*
X460Y4759D01*
X508Y4676D01*
X576Y4608D01*
X659Y4560D01*
X752Y4535D01*
X848D01*
X941Y4560D01*
X1024Y4608D01*
X1092Y4676D01*
X1140Y4759D01*
X1165Y4852D01*
Y4948D01*
X1140Y5041D01*
X1092Y5124D01*
X1024Y5192D01*
X941Y5240D01*
X848Y5265D01*
D02*
G37*
G36*
X15300Y4573D02*
Y4400D01*
X15473D01*
X15441Y4477D01*
X15377Y4541D01*
X15300Y4573D01*
D02*
G37*
G36*
X15200D02*
X15123Y4541D01*
X15059Y4477D01*
X15027Y4400D01*
X15200D01*
Y4573D01*
D02*
G37*
G36*
X15473Y4300D02*
X15300D01*
Y4127D01*
X15377Y4159D01*
X15441Y4223D01*
X15473Y4300D01*
D02*
G37*
G36*
X15200D02*
X15027D01*
X15059Y4223D01*
X15123Y4159D01*
X15200Y4127D01*
Y4300D01*
D02*
G37*
G36*
X18848Y4265D02*
X18752D01*
X18659Y4240D01*
X18576Y4192D01*
X18508Y4124D01*
X18460Y4041D01*
X18435Y3948D01*
Y3852D01*
X18460Y3759D01*
X18508Y3676D01*
X18576Y3608D01*
X18659Y3560D01*
X18752Y3535D01*
X18848D01*
X18941Y3560D01*
X19024Y3608D01*
X19092Y3676D01*
X19140Y3759D01*
X19165Y3852D01*
Y3948D01*
X19140Y4041D01*
X19092Y4124D01*
X19024Y4192D01*
X18941Y4240D01*
X18848Y4265D01*
D02*
G37*
G36*
X848D02*
X752D01*
X659Y4240D01*
X576Y4192D01*
X508Y4124D01*
X460Y4041D01*
X435Y3948D01*
Y3852D01*
X460Y3759D01*
X508Y3676D01*
X576Y3608D01*
X659Y3560D01*
X752Y3535D01*
X848D01*
X941Y3560D01*
X1024Y3608D01*
X1092Y3676D01*
X1140Y3759D01*
X1165Y3852D01*
Y3948D01*
X1140Y4041D01*
X1092Y4124D01*
X1024Y4192D01*
X941Y4240D01*
X848Y4265D01*
D02*
G37*
G36*
X18848Y3265D02*
X18752D01*
X18659Y3240D01*
X18576Y3192D01*
X18508Y3124D01*
X18460Y3041D01*
X18435Y2948D01*
Y2852D01*
X18460Y2759D01*
X18508Y2676D01*
X18576Y2608D01*
X18659Y2560D01*
X18752Y2535D01*
X18848D01*
X18941Y2560D01*
X19024Y2608D01*
X19092Y2676D01*
X19140Y2759D01*
X19165Y2852D01*
Y2948D01*
X19140Y3041D01*
X19092Y3124D01*
X19024Y3192D01*
X18941Y3240D01*
X18848Y3265D01*
D02*
G37*
G36*
X848D02*
X752D01*
X659Y3240D01*
X576Y3192D01*
X508Y3124D01*
X460Y3041D01*
X435Y2948D01*
Y2852D01*
X460Y2759D01*
X508Y2676D01*
X576Y2608D01*
X659Y2560D01*
X752Y2535D01*
X848D01*
X941Y2560D01*
X1024Y2608D01*
X1092Y2676D01*
X1140Y2759D01*
X1165Y2852D01*
Y2948D01*
X1140Y3041D01*
X1092Y3124D01*
X1024Y3192D01*
X941Y3240D01*
X848Y3265D01*
D02*
G37*
G36*
X10800Y1873D02*
Y1700D01*
X10973D01*
X10941Y1777D01*
X10877Y1841D01*
X10800Y1873D01*
D02*
G37*
G36*
X10700D02*
X10623Y1841D01*
X10559Y1777D01*
X10527Y1700D01*
X10700D01*
Y1873D01*
D02*
G37*
G36*
X18848Y2265D02*
X18752D01*
X18659Y2240D01*
X18576Y2192D01*
X18508Y2124D01*
X18460Y2041D01*
X18435Y1948D01*
Y1852D01*
X18460Y1759D01*
X18508Y1676D01*
X18576Y1608D01*
X18659Y1560D01*
X18752Y1535D01*
X18848D01*
X18941Y1560D01*
X19024Y1608D01*
X19092Y1676D01*
X19140Y1759D01*
X19165Y1852D01*
Y1948D01*
X19140Y2041D01*
X19092Y2124D01*
X19024Y2192D01*
X18941Y2240D01*
X18848Y2265D01*
D02*
G37*
G36*
X10973Y1600D02*
X10800D01*
Y1427D01*
X10877Y1459D01*
X10941Y1523D01*
X10973Y1600D01*
D02*
G37*
G36*
X10700D02*
X10527D01*
X10559Y1523D01*
X10623Y1459D01*
X10700Y1427D01*
Y1600D01*
D02*
G37*
G36*
X2373Y1550D02*
X2200D01*
Y1377D01*
X2277Y1409D01*
X2341Y1473D01*
X2373Y1550D01*
D02*
G37*
G36*
X2100D02*
X1927D01*
X1959Y1473D01*
X2023Y1409D01*
X2100Y1377D01*
Y1550D01*
D02*
G37*
G36*
X12150Y1473D02*
Y1300D01*
X12323D01*
X12291Y1377D01*
X12227Y1441D01*
X12150Y1473D01*
D02*
G37*
G36*
X12050D02*
X11973Y1441D01*
X11909Y1377D01*
X11877Y1300D01*
X12050D01*
Y1473D01*
D02*
G37*
G36*
X6500Y1223D02*
Y1050D01*
X6673D01*
X6641Y1127D01*
X6577Y1191D01*
X6500Y1223D01*
D02*
G37*
G36*
X6400D02*
X6323Y1191D01*
X6259Y1127D01*
X6227Y1050D01*
X6400D01*
Y1223D01*
D02*
G37*
G36*
X12323Y1200D02*
X12150D01*
Y1027D01*
X12227Y1059D01*
X12291Y1123D01*
X12323Y1200D01*
D02*
G37*
G36*
X12050D02*
X11877D01*
X11909Y1123D01*
X11973Y1059D01*
X12050Y1027D01*
Y1200D01*
D02*
G37*
G36*
X6673Y950D02*
X6500D01*
Y777D01*
X6577Y809D01*
X6641Y873D01*
X6673Y950D01*
D02*
G37*
G36*
X6400D02*
X6227D01*
X6259Y873D01*
X6323Y809D01*
X6400Y777D01*
Y950D01*
D02*
G37*
%LPD*%
D14*
X12250Y3275D02*
X14650Y875D01*
X12250Y3275D02*
Y8212D01*
X14650Y850D02*
Y875D01*
X15750Y3000D02*
Y5350D01*
X17850Y900D02*
X18800D01*
X15750Y3000D02*
X17850Y900D01*
X3800Y10400D02*
X6550D01*
X3500Y10100D02*
X3800Y10400D01*
X3500Y9900D02*
Y10100D01*
X6550Y10400D02*
X6800Y10150D01*
X7850D01*
X6000Y1900D02*
X10400Y6300D01*
X10700Y7300D02*
X11050D01*
X7850Y10150D02*
X10700Y7300D01*
X11200Y6800D01*
X8236Y3686D02*
Y3736D01*
X5450Y900D02*
X8236Y3686D01*
Y3736D02*
X11050Y6550D01*
X800Y1900D02*
X6000D01*
X800Y900D02*
X5450D01*
X11200Y6800D02*
X11700D01*
X15250Y5850D02*
X15750Y5350D01*
X14100Y7000D02*
X15250Y5850D01*
X14100Y7000D02*
Y9500D01*
X15138Y10538D02*
Y11100D01*
X14100Y9500D02*
X15138Y10538D01*
X12250Y8212D02*
X13957Y9919D01*
X16319Y11100D02*
X16900Y10519D01*
Y9550D02*
Y10519D01*
X21425Y14500D02*
X21625Y13900D01*
X21225D02*
X21425Y14500D01*
X21225Y600D02*
X21425Y0D01*
X21625Y600D01*
X21425Y8250D02*
Y14500D01*
Y0D02*
Y5930D01*
X19700Y14500D02*
X21525D01*
X19700Y0D02*
X21525D01*
X0Y16300D02*
X600Y16500D01*
X0Y16300D02*
X600Y16100D01*
X19000D02*
X19600Y16300D01*
X19000Y16500D02*
X19600Y16300D01*
X0D02*
X8480D01*
X10800D02*
X19600D01*
X0Y14600D02*
Y16400D01*
X19600Y14600D02*
Y16400D01*
D17*
X0Y0D02*
X19600D01*
Y14500D01*
X0D02*
X19600D01*
X0Y0D02*
Y14500D01*
D18*
X21785Y6090D02*
Y6290D01*
Y6190D01*
X21185D01*
X21285Y6090D01*
X21785Y6590D02*
X21685D01*
Y6690D01*
X21785D01*
Y6590D01*
Y7390D02*
X21185D01*
X21485Y7090D01*
Y7490D01*
X21185Y8090D02*
Y7690D01*
X21485D01*
X21385Y7890D01*
Y7990D01*
X21485Y8090D01*
X21685D01*
X21785Y7990D01*
Y7790D01*
X21685Y7690D01*
X8640Y15940D02*
X8840D01*
X8740D01*
Y16540D01*
X8640Y16440D01*
X9140Y15940D02*
Y16040D01*
X9240D01*
Y15940D01*
X9140D01*
X9640Y16040D02*
X9740Y15940D01*
X9940D01*
X10040Y16040D01*
Y16440D01*
X9940Y16540D01*
X9740D01*
X9640Y16440D01*
Y16340D01*
X9740Y16240D01*
X10040D01*
X10640Y16540D02*
X10440Y16440D01*
X10240Y16240D01*
Y16040D01*
X10340Y15940D01*
X10540D01*
X10640Y16040D01*
Y16140D01*
X10540Y16240D01*
X10240D01*
D47*
X12776Y11100D02*
D03*
D48*
X13957D02*
D03*
X15138D02*
D03*
X16319D02*
D03*
X17500D02*
D03*
X12776Y9919D02*
D03*
X13957D02*
D03*
X15138D02*
D03*
X16319D02*
D03*
X17500D02*
D03*
D49*
X13626Y12801D02*
D03*
D50*
X16650D02*
D03*
D51*
X1800Y8900D02*
D03*
X18800Y900D02*
D03*
Y1900D02*
D03*
Y4900D02*
D03*
Y3900D02*
D03*
Y2900D02*
D03*
Y9900D02*
D03*
Y6900D02*
D03*
Y8900D02*
D03*
Y7900D02*
D03*
Y5900D02*
D03*
X800D02*
D03*
Y2900D02*
D03*
Y3900D02*
D03*
Y4900D02*
D03*
Y1900D02*
D03*
Y900D02*
D03*
Y7900D02*
D03*
Y8900D02*
D03*
Y6900D02*
D03*
D52*
Y9900D02*
D03*
X1800D02*
D03*
D53*
X12100Y1250D02*
D03*
X10750Y1650D02*
D03*
X2150Y1600D02*
D03*
X14650Y850D02*
D03*
X4770Y7541D02*
D03*
X3500Y9900D02*
D03*
Y11300D02*
D03*
X4400Y9600D02*
D03*
X2550Y8000D02*
D03*
X10400Y6300D02*
D03*
X11050Y7300D02*
D03*
Y6550D02*
D03*
X11700Y6800D02*
D03*
X15250Y5850D02*
D03*
Y4350D02*
D03*
Y7350D02*
D03*
X16900Y9550D02*
D03*
X6450Y1000D02*
D03*
X6800Y10150D02*
D03*
X3350Y6700D02*
D03*
X12250Y3300D02*
D03*
M02*
