G04*
G04 #@! TF.GenerationSoftware,Altium Limited,Altium Designer,22.1.2 (22)*
G04*
G04 Layer_Physical_Order=1*
G04 Layer_Color=255*
%FSLAX24Y24*%
%MOIN*%
G70*
G04*
G04 #@! TF.SameCoordinates,69551EEB-C68B-4B17-9CB5-8D0B25672B83*
G04*
G04*
G04 #@! TF.FilePolarity,Positive*
G04*
G01*
G75*
%ADD12C,0.0079*%
%ADD14C,0.0100*%
%ADD16C,0.0000*%
%ADD17C,0.0060*%
%ADD34R,0.0194X0.0118*%
%ADD35R,0.0217X0.0472*%
%ADD36R,0.0610X0.0217*%
%ADD37R,0.2205X0.0610*%
%ADD38R,0.0551X0.1299*%
%ADD39R,0.0400X0.0600*%
%ADD40R,0.0600X0.0400*%
%ADD41R,0.0827X0.0551*%
%ADD42R,0.0433X0.0472*%
%ADD43R,0.0433X0.1024*%
%ADD44C,0.0500*%
%ADD45C,0.1181*%
%ADD46C,0.0539*%
%ADD47R,0.0539X0.0539*%
%ADD48C,0.0650*%
%ADD49R,0.0650X0.0650*%
%ADD50C,0.0250*%
D12*
X150Y11700D02*
X10600D01*
D14*
X3613Y6853D02*
X3782D01*
X3400Y7066D02*
Y8000D01*
Y7066D02*
X3613Y6853D01*
X3782Y7247D02*
X4097D01*
X4650Y7800D01*
X4438Y7050D02*
X4860D01*
X4870Y7040D01*
X4476Y7247D02*
X4770Y7541D01*
X4438Y7247D02*
X4476D01*
X3459Y11300D02*
X3500Y11259D01*
X4650Y7800D02*
X5300D01*
X3500Y9900D02*
X3832D01*
X3874Y9942D01*
Y9780D02*
Y9942D01*
X3500Y10892D02*
Y11259D01*
X3459Y11300D02*
X3500D01*
X3185Y10244D02*
X3815D01*
X3874Y10303D02*
Y10892D01*
X3815Y10244D02*
X3874Y10303D01*
X3126D02*
X3185Y10244D01*
X3126Y10303D02*
Y10892D01*
X4300Y11000D02*
X5500D01*
X4192Y10892D02*
X4300Y11000D01*
X3874Y10892D02*
X4192D01*
X5600Y10500D02*
Y10900D01*
X5500Y11000D02*
X5600Y10900D01*
X4400Y9600D02*
X4800D01*
Y8700D02*
Y9600D01*
Y10500D01*
X6450Y1000D02*
X7141D01*
X5759D02*
X6450D01*
X3444Y9350D02*
X3874Y9780D01*
X2800Y9350D02*
X3444D01*
X2800D02*
Y10050D01*
X2200Y10650D02*
X2800Y10050D01*
X1050Y10650D02*
X2200D01*
X2900Y8000D02*
X3400D01*
X2700Y7800D02*
X2900Y8000D01*
X2700Y7500D02*
Y7800D01*
X2550Y8000D02*
X2809Y8259D01*
Y8541D01*
X2800Y8550D02*
X2809Y8541D01*
X5000Y8000D02*
X5600Y8600D01*
X4200Y8000D02*
X5000D01*
X12300Y3800D02*
X12950D01*
X10100Y6000D02*
X12300Y3800D01*
X10100Y6000D02*
Y8424D01*
X10400Y6300D02*
X11900Y7800D01*
X12021Y8300D02*
X12950D01*
X11050Y7329D02*
X12021Y8300D01*
X11050Y7300D02*
Y7329D01*
X11900Y7800D02*
X13350D01*
X11050Y6550D02*
X12100Y7600D01*
X13850D01*
X11700Y6800D02*
X12950D01*
X13350Y7800D02*
X13750Y8200D01*
X13850Y7600D02*
X14450Y8200D01*
X13050Y7400D02*
X14450D01*
X12950Y7300D02*
X13050Y7400D01*
X14450D02*
X15250Y8200D01*
X13750D02*
Y8400D01*
X14450Y9100D02*
X15500D01*
X13750Y8400D02*
X14450Y9100D01*
X15500D02*
X16319Y9919D01*
X14450Y8400D02*
X14950Y8900D01*
X14450Y8200D02*
Y8400D01*
X14950Y8900D02*
X16250D01*
X16900Y9550D01*
X12950Y6800D02*
Y7300D01*
X15400Y8050D02*
X15400D01*
X16800Y4500D02*
Y6650D01*
X15250Y8200D02*
X15400Y8050D01*
X15400D02*
X16800Y6650D01*
X15250Y5313D02*
Y5850D01*
Y3813D02*
Y4350D01*
Y5313D02*
X15263Y5300D01*
X15250Y3813D02*
X15263Y3800D01*
X15250Y6813D02*
Y7350D01*
Y6813D02*
X15263Y6800D01*
X15850Y2050D02*
X17750Y3950D01*
X15750Y2050D02*
Y2200D01*
X17750Y3950D02*
Y9100D01*
X15750Y2050D02*
X15850D01*
X15550Y2150D02*
X15600Y2200D01*
X16750Y2650D02*
X18050D01*
X16350Y1450D02*
Y2250D01*
X16750Y2650D01*
X18050D02*
X18800Y1900D01*
X16800Y1350D02*
Y1950D01*
X17600Y700D02*
Y1950D01*
X15550Y2074D02*
Y2150D01*
X15500Y2024D02*
X15550Y2074D01*
X12726Y2024D02*
X13886D01*
X15500D01*
X15600Y2200D02*
X15741D01*
X15750Y1250D02*
X16150D01*
X16350Y1450D01*
X16250Y700D02*
X16800D01*
X14650Y1250D02*
Y1614D01*
X14614Y1650D02*
X14650Y1614D01*
X10741Y2782D02*
X11729D01*
X7159D02*
X10741D01*
X6105Y2545D02*
X6600Y2050D01*
X12700D01*
X10750Y1027D02*
Y1500D01*
X12257Y1250D02*
X12700D01*
X12726Y1276D01*
X13886D01*
X12700Y2050D02*
X12726Y2024D01*
X12252Y1255D02*
X12257Y1250D01*
X2159Y2782D02*
X5741D01*
Y1018D02*
X5759Y1000D01*
X7141D02*
X7159Y1018D01*
X11729Y2782D02*
X12247Y3300D01*
X5979Y2682D02*
X6105Y2556D01*
Y2545D02*
Y2556D01*
X7882Y10850D02*
X10350D01*
X13250Y13750D02*
X17500D01*
X10350Y10850D02*
X13250Y13750D01*
X6800Y10831D02*
X6819Y10850D01*
X6800Y10150D02*
Y10831D01*
X2700Y6700D02*
X3350D01*
X2550Y6800D02*
X2600Y6750D01*
X3350Y6200D02*
Y6700D01*
X800Y10400D02*
X1050Y10650D01*
X800Y9900D02*
Y10400D01*
X12247Y3300D02*
X12250D01*
X2150Y1027D02*
Y1500D01*
X16350Y10500D02*
X17750Y9100D01*
X14557Y10500D02*
X16350D01*
X13957Y11100D02*
X14557Y10500D01*
X13750Y3800D02*
X14437D01*
X13750Y5300D02*
X14437D01*
X13750Y6800D02*
X14437D01*
X12950Y5300D02*
Y6800D01*
X18451Y700D02*
X18651Y900D01*
X18800D01*
X17600Y700D02*
X18451D01*
X17500Y13750D02*
X18100Y13150D01*
Y10519D02*
Y13150D01*
X17500Y9919D02*
X18100Y10519D01*
X5600Y8600D02*
Y8700D01*
X19600Y14600D02*
Y16400D01*
X0Y14600D02*
Y16400D01*
X11699Y16300D02*
X19600D01*
X0D02*
X7581D01*
X19000Y16500D02*
X19600Y16300D01*
X19000Y16100D02*
X19600Y16300D01*
X0D02*
X600Y16100D01*
X0Y16300D02*
X600Y16500D01*
X19700Y0D02*
X21525D01*
X19700Y14500D02*
X21525D01*
X21425Y0D02*
Y5031D01*
Y9149D02*
Y14500D01*
Y0D02*
X21625Y600D01*
X21225D02*
X21425Y0D01*
X21225Y13900D02*
X21425Y14500D01*
X21625Y13900D01*
D16*
X0Y0D02*
X19600D01*
Y14500D01*
X0D02*
X19600D01*
X0Y0D02*
Y14500D01*
D17*
X7741Y15940D02*
X7941D01*
X7841D01*
Y16540D01*
X7741Y16440D01*
X8240Y16040D02*
X8340Y15940D01*
X8540D01*
X8640Y16040D01*
Y16440D01*
X8540Y16540D01*
X8340D01*
X8240Y16440D01*
Y16340D01*
X8340Y16240D01*
X8640D01*
X9240Y16540D02*
X9040Y16440D01*
X8840Y16240D01*
Y16040D01*
X8940Y15940D01*
X9140D01*
X9240Y16040D01*
Y16140D01*
X9140Y16240D01*
X8840D01*
X9440Y16440D02*
X9540Y16540D01*
X9740D01*
X9840Y16440D01*
Y16040D01*
X9740Y15940D01*
X9540D01*
X9440Y16040D01*
Y16440D01*
X10040Y15940D02*
Y16040D01*
X10140D01*
Y15940D01*
X10040D01*
X10540Y16440D02*
X10640Y16540D01*
X10840D01*
X10940Y16440D01*
Y16040D01*
X10840Y15940D01*
X10640D01*
X10540Y16040D01*
Y16440D01*
X11140D02*
X11239Y16540D01*
X11439D01*
X11539Y16440D01*
Y16040D01*
X11439Y15940D01*
X11239D01*
X11140Y16040D01*
Y16440D01*
X21785Y5191D02*
Y5391D01*
Y5291D01*
X21185D01*
X21285Y5191D01*
X21785Y5990D02*
X21185D01*
X21485Y5690D01*
Y6090D01*
X21185Y6690D02*
Y6290D01*
X21485D01*
X21385Y6490D01*
Y6590D01*
X21485Y6690D01*
X21685D01*
X21785Y6590D01*
Y6390D01*
X21685Y6290D01*
X21285Y6890D02*
X21185Y6990D01*
Y7190D01*
X21285Y7290D01*
X21685D01*
X21785Y7190D01*
Y6990D01*
X21685Y6890D01*
X21285D01*
X21785Y7490D02*
X21685D01*
Y7590D01*
X21785D01*
Y7490D01*
X21285Y7990D02*
X21185Y8090D01*
Y8290D01*
X21285Y8390D01*
X21685D01*
X21785Y8290D01*
Y8090D01*
X21685Y7990D01*
X21285D01*
Y8590D02*
X21185Y8689D01*
Y8889D01*
X21285Y8989D01*
X21685D01*
X21785Y8889D01*
Y8689D01*
X21685Y8590D01*
X21285D01*
D34*
X4438Y7050D02*
D03*
X3782Y6853D02*
D03*
Y7050D02*
D03*
Y7247D02*
D03*
X4438D02*
D03*
Y6853D02*
D03*
D35*
X3874Y9908D02*
D03*
X3126D02*
D03*
Y10892D02*
D03*
X3500D02*
D03*
X3874D02*
D03*
D36*
X13886Y2024D02*
D03*
Y1276D02*
D03*
X14614Y1650D02*
D03*
D37*
X7900Y7997D02*
D03*
Y6403D02*
D03*
D38*
X8898Y9400D02*
D03*
X7402D02*
D03*
D39*
X15250Y8300D02*
D03*
X14450D02*
D03*
X12950D02*
D03*
X13750D02*
D03*
X4150Y6200D02*
D03*
X3350D02*
D03*
X12950Y6800D02*
D03*
X13750D02*
D03*
X12950Y3800D02*
D03*
X13750D02*
D03*
X12950Y5300D02*
D03*
X13750D02*
D03*
X16800Y1950D02*
D03*
X17600D02*
D03*
X16800Y700D02*
D03*
X17600D02*
D03*
X3400Y8000D02*
D03*
X4200D02*
D03*
X4800Y10500D02*
D03*
X5600D02*
D03*
X4800Y8700D02*
D03*
X5600D02*
D03*
X4800Y9600D02*
D03*
X5600D02*
D03*
D40*
X12700Y1250D02*
D03*
Y2050D02*
D03*
X2700Y7500D02*
D03*
Y6700D02*
D03*
X2800Y9350D02*
D03*
Y8550D02*
D03*
X15750Y1250D02*
D03*
Y2050D02*
D03*
X5550Y7700D02*
D03*
Y6900D02*
D03*
D41*
X10741Y2782D02*
D03*
Y1018D02*
D03*
X7159D02*
D03*
Y2782D02*
D03*
X5741D02*
D03*
Y1018D02*
D03*
X2159D02*
D03*
Y2782D02*
D03*
D42*
X15263Y3800D02*
D03*
X14437D02*
D03*
X15263Y6800D02*
D03*
X14437D02*
D03*
X15263Y5300D02*
D03*
X14437D02*
D03*
D43*
X7882Y10850D02*
D03*
X6819D02*
D03*
D44*
X4440Y5910D02*
Y6690D01*
X5260Y7040D02*
X5897Y6403D01*
X4870Y7040D02*
X5260D01*
X4900Y5450D02*
X9350D01*
X4440Y5910D02*
X4900Y5450D01*
X5897Y6403D02*
X7900D01*
X5600Y8700D02*
X6303Y7997D01*
X7900D01*
Y8528D01*
X7402Y9026D02*
Y9400D01*
Y9626D02*
X7428Y9600D01*
X7402Y9026D02*
X7900Y8528D01*
X9350Y5450D02*
X9900Y6000D01*
Y8224D02*
X10100Y8424D01*
X12756Y11080D01*
X12150Y11800D02*
X16789Y11800D01*
X8898Y9400D02*
X9750D01*
X12150Y11800D01*
X9900Y6000D02*
Y8224D01*
X16789Y11800D02*
X17482Y11108D01*
X17492D01*
X17500Y11100D01*
X5600Y9600D02*
Y10500D01*
Y8700D02*
Y9600D01*
D45*
X16650Y12801D02*
D03*
X13626D02*
D03*
D46*
X17500Y9919D02*
D03*
X16319D02*
D03*
X15138D02*
D03*
X13957D02*
D03*
X12776D02*
D03*
X17500Y11100D02*
D03*
X16319D02*
D03*
X15138D02*
D03*
X13957D02*
D03*
D47*
X12776D02*
D03*
D48*
X1800Y8900D02*
D03*
X18800Y900D02*
D03*
Y1900D02*
D03*
Y4900D02*
D03*
Y3900D02*
D03*
Y2900D02*
D03*
Y9900D02*
D03*
Y6900D02*
D03*
Y8900D02*
D03*
Y7900D02*
D03*
Y5900D02*
D03*
X800D02*
D03*
Y2900D02*
D03*
Y3900D02*
D03*
Y4900D02*
D03*
Y1900D02*
D03*
Y900D02*
D03*
Y7900D02*
D03*
Y8900D02*
D03*
Y6900D02*
D03*
D49*
Y9900D02*
D03*
X1800D02*
D03*
D50*
X4770Y7541D02*
D03*
X3500Y9900D02*
D03*
Y11300D02*
D03*
X4400Y9600D02*
D03*
X2550Y8000D02*
D03*
X10400Y6300D02*
D03*
X11050Y7300D02*
D03*
Y6550D02*
D03*
X11700Y6800D02*
D03*
X15250Y5850D02*
D03*
Y4350D02*
D03*
X16800Y4500D02*
D03*
X15250Y7350D02*
D03*
X16900Y9550D02*
D03*
X16250Y700D02*
D03*
X14650Y1250D02*
D03*
X10750Y1500D02*
D03*
X12252Y1255D02*
D03*
X6450Y1000D02*
D03*
X6800Y10150D02*
D03*
X3350Y6700D02*
D03*
X12250Y3300D02*
D03*
X2150Y1500D02*
D03*
X16800Y1350D02*
D03*
M02*
