G04*
G04 #@! TF.GenerationSoftware,Altium Limited,Altium Designer,22.1.2 (22)*
G04*
G04 Layer_Color=16711935*
%FSLAX24Y24*%
%MOIN*%
G70*
G04*
G04 #@! TF.SameCoordinates,69551EEB-C68B-4B17-9CB5-8D0B25672B83*
G04*
G04*
G04 #@! TF.FilePolarity,Negative*
G04*
G01*
G75*
%ADD12C,0.0079*%
%ADD14C,0.0100*%
%ADD16C,0.0000*%
%ADD17C,0.0060*%
%ADD28C,0.1261*%
%ADD29C,0.0619*%
%ADD30R,0.0619X0.0619*%
%ADD31C,0.0730*%
%ADD32R,0.0730X0.0730*%
%ADD33C,0.0330*%
D12*
X150Y11700D02*
X10600D01*
D14*
X19600Y14600D02*
Y16400D01*
X0Y14600D02*
Y16400D01*
X11699Y16300D02*
X19600D01*
X0D02*
X7581D01*
X19000Y16500D02*
X19600Y16300D01*
X19000Y16100D02*
X19600Y16300D01*
X0D02*
X600Y16100D01*
X0Y16300D02*
X600Y16500D01*
X19700Y0D02*
X21525D01*
X19700Y14500D02*
X21525D01*
X21425Y0D02*
Y5031D01*
Y9149D02*
Y14500D01*
Y0D02*
X21625Y600D01*
X21225D02*
X21425Y0D01*
X21225Y13900D02*
X21425Y14500D01*
X21625Y13900D01*
D16*
X0Y0D02*
X19600D01*
Y14500D01*
X0D02*
X19600D01*
X0Y0D02*
Y14500D01*
D17*
X7741Y15940D02*
X7941D01*
X7841D01*
Y16540D01*
X7741Y16440D01*
X8240Y16040D02*
X8340Y15940D01*
X8540D01*
X8640Y16040D01*
Y16440D01*
X8540Y16540D01*
X8340D01*
X8240Y16440D01*
Y16340D01*
X8340Y16240D01*
X8640D01*
X9240Y16540D02*
X9040Y16440D01*
X8840Y16240D01*
Y16040D01*
X8940Y15940D01*
X9140D01*
X9240Y16040D01*
Y16140D01*
X9140Y16240D01*
X8840D01*
X9440Y16440D02*
X9540Y16540D01*
X9740D01*
X9840Y16440D01*
Y16040D01*
X9740Y15940D01*
X9540D01*
X9440Y16040D01*
Y16440D01*
X10040Y15940D02*
Y16040D01*
X10140D01*
Y15940D01*
X10040D01*
X10540Y16440D02*
X10640Y16540D01*
X10840D01*
X10940Y16440D01*
Y16040D01*
X10840Y15940D01*
X10640D01*
X10540Y16040D01*
Y16440D01*
X11140D02*
X11239Y16540D01*
X11439D01*
X11539Y16440D01*
Y16040D01*
X11439Y15940D01*
X11239D01*
X11140Y16040D01*
Y16440D01*
X21785Y5191D02*
Y5391D01*
Y5291D01*
X21185D01*
X21285Y5191D01*
X21785Y5990D02*
X21185D01*
X21485Y5690D01*
Y6090D01*
X21185Y6690D02*
Y6290D01*
X21485D01*
X21385Y6490D01*
Y6590D01*
X21485Y6690D01*
X21685D01*
X21785Y6590D01*
Y6390D01*
X21685Y6290D01*
X21285Y6890D02*
X21185Y6990D01*
Y7190D01*
X21285Y7290D01*
X21685D01*
X21785Y7190D01*
Y6990D01*
X21685Y6890D01*
X21285D01*
X21785Y7490D02*
X21685D01*
Y7590D01*
X21785D01*
Y7490D01*
X21285Y7990D02*
X21185Y8090D01*
Y8290D01*
X21285Y8390D01*
X21685D01*
X21785Y8290D01*
Y8090D01*
X21685Y7990D01*
X21285D01*
Y8590D02*
X21185Y8689D01*
Y8889D01*
X21285Y8989D01*
X21685D01*
X21785Y8889D01*
Y8689D01*
X21685Y8590D01*
X21285D01*
D28*
X16650Y12801D02*
D03*
X13626D02*
D03*
D29*
X17500Y9919D02*
D03*
X16319D02*
D03*
X15138D02*
D03*
X13957D02*
D03*
X12776D02*
D03*
X17500Y11100D02*
D03*
X16319D02*
D03*
X15138D02*
D03*
X13957D02*
D03*
D30*
X12776D02*
D03*
D31*
X1800Y8900D02*
D03*
X18800Y900D02*
D03*
Y1900D02*
D03*
Y4900D02*
D03*
Y3900D02*
D03*
Y2900D02*
D03*
Y9900D02*
D03*
Y6900D02*
D03*
Y8900D02*
D03*
Y7900D02*
D03*
Y5900D02*
D03*
X800D02*
D03*
Y2900D02*
D03*
Y3900D02*
D03*
Y4900D02*
D03*
Y1900D02*
D03*
Y900D02*
D03*
Y7900D02*
D03*
Y8900D02*
D03*
Y6900D02*
D03*
D32*
Y9900D02*
D03*
X1800D02*
D03*
D33*
X4770Y7541D02*
D03*
X3500Y9900D02*
D03*
Y11300D02*
D03*
X4400Y9600D02*
D03*
X2550Y8000D02*
D03*
X10400Y6300D02*
D03*
X11050Y7300D02*
D03*
Y6550D02*
D03*
X11700Y6800D02*
D03*
X15250Y5850D02*
D03*
Y4350D02*
D03*
X16800Y4500D02*
D03*
X15250Y7350D02*
D03*
X16900Y9550D02*
D03*
X16250Y700D02*
D03*
X14650Y1250D02*
D03*
X10750Y1500D02*
D03*
X12252Y1255D02*
D03*
X6450Y1000D02*
D03*
X6800Y10150D02*
D03*
X3350Y6700D02*
D03*
X12250Y3300D02*
D03*
X2150Y1500D02*
D03*
X16800Y1350D02*
D03*
M02*
