G04*
G04 #@! TF.GenerationSoftware,Altium Limited,Altium Designer,19.1.7 (138)*
G04*
G04 Layer_Physical_Order=2*
G04 Layer_Color=16711680*
%FSLAX25Y25*%
%MOIN*%
G70*
G01*
G75*
%ADD14C,0.01000*%
%ADD51C,0.02000*%
%ADD52C,0.08000*%
%ADD53R,0.05906X0.05906*%
%ADD54C,0.05906*%
%ADD55C,0.06000*%
%ADD56C,0.06693*%
%ADD57R,0.06693X0.06693*%
%ADD58R,0.06693X0.06693*%
%ADD59C,0.05000*%
G36*
X456000Y208500D02*
X130500D01*
Y427500D01*
X456000D01*
Y208500D01*
D02*
G37*
%LPC*%
G36*
X136500Y426543D02*
X135195Y426371D01*
X133978Y425868D01*
X132934Y425066D01*
X132132Y424022D01*
X131629Y422805D01*
X131457Y421500D01*
X131629Y420195D01*
X132132Y418978D01*
X132934Y417934D01*
X133978Y417133D01*
X135195Y416629D01*
X136500Y416457D01*
X137805Y416629D01*
X139022Y417133D01*
X140066Y417934D01*
X140867Y418978D01*
X141371Y420195D01*
X141543Y421500D01*
X141371Y422805D01*
X140867Y424022D01*
X140066Y425066D01*
X139022Y425868D01*
X137805Y426371D01*
X136500Y426543D01*
D02*
G37*
G36*
X431500Y420539D02*
X199500D01*
X198720Y420384D01*
X198058Y419942D01*
X189058Y410942D01*
X188616Y410280D01*
X188461Y409500D01*
Y365345D01*
X168058Y344942D01*
X167616Y344280D01*
X167461Y343500D01*
Y341847D01*
X167004Y341496D01*
X166443Y340765D01*
X166090Y339914D01*
X165970Y339000D01*
X166090Y338086D01*
X166443Y337235D01*
X167004Y336504D01*
X167735Y335943D01*
X168586Y335590D01*
X169500Y335470D01*
X170414Y335590D01*
X171265Y335943D01*
X171996Y336504D01*
X172557Y337235D01*
X172910Y338086D01*
X173030Y339000D01*
X172910Y339914D01*
X172557Y340765D01*
X171996Y341496D01*
X171539Y341847D01*
Y342655D01*
X191942Y363058D01*
X191942Y363058D01*
X192384Y363720D01*
X192539Y364500D01*
Y408655D01*
X200345Y416461D01*
X430655D01*
X436599Y410517D01*
X436466Y409500D01*
X436603Y408456D01*
X436911Y407712D01*
X431738Y402539D01*
X421500D01*
X420720Y402384D01*
X420058Y401942D01*
X414058Y395942D01*
X413616Y395280D01*
X413461Y394500D01*
Y260345D01*
X405655Y252539D01*
X332345D01*
X325442Y259442D01*
X324780Y259884D01*
X324000Y260039D01*
X268500Y260039D01*
X267720Y259884D01*
X267058Y259442D01*
X267058Y259442D01*
X266963Y259347D01*
X261154D01*
Y250654D01*
X269847D01*
Y255961D01*
X323155Y255961D01*
X330058Y249058D01*
X330720Y248616D01*
X331500Y248461D01*
X331500Y248461D01*
X406500D01*
X407280Y248616D01*
X407942Y249058D01*
X416942Y258058D01*
X417384Y258720D01*
X417539Y259500D01*
Y393655D01*
X422345Y398461D01*
X432582D01*
X433363Y398616D01*
X434024Y399058D01*
X440440Y405473D01*
X440500Y405466D01*
X441544Y405603D01*
X442517Y406006D01*
X443353Y406647D01*
X443994Y407483D01*
X444397Y408456D01*
X444534Y409500D01*
X444397Y410544D01*
X443994Y411517D01*
X443353Y412353D01*
X442517Y412994D01*
X441544Y413397D01*
X440500Y413534D01*
X439483Y413401D01*
X432942Y419942D01*
X432280Y420384D01*
X431500Y420539D01*
D02*
G37*
G36*
X430500Y413534D02*
X429456Y413397D01*
X428483Y412994D01*
X427647Y412353D01*
X427006Y411517D01*
X426603Y410544D01*
X426466Y409500D01*
X426603Y408456D01*
X427006Y407483D01*
X427647Y406647D01*
X428483Y406006D01*
X429456Y405603D01*
X430500Y405466D01*
X431544Y405603D01*
X432517Y406006D01*
X433353Y406647D01*
X433994Y407483D01*
X434397Y408456D01*
X434535Y409500D01*
X434397Y410544D01*
X433994Y411517D01*
X433353Y412353D01*
X432517Y412994D01*
X431544Y413397D01*
X430500Y413534D01*
D02*
G37*
G36*
X420500D02*
X419456Y413397D01*
X418483Y412994D01*
X417647Y412353D01*
X417006Y411517D01*
X416603Y410544D01*
X416466Y409500D01*
X416603Y408456D01*
X417006Y407483D01*
X417647Y406647D01*
X418483Y406006D01*
X419456Y405603D01*
X420500Y405466D01*
X421544Y405603D01*
X422517Y406006D01*
X423353Y406647D01*
X423994Y407483D01*
X424397Y408456D01*
X424535Y409500D01*
X424397Y410544D01*
X423994Y411517D01*
X423353Y412353D01*
X422517Y412994D01*
X421544Y413397D01*
X420500Y413534D01*
D02*
G37*
G36*
X410500D02*
X409456Y413397D01*
X408483Y412994D01*
X407647Y412353D01*
X407006Y411517D01*
X406603Y410544D01*
X406465Y409500D01*
X406603Y408456D01*
X407006Y407483D01*
X407647Y406647D01*
X408483Y406006D01*
X409456Y405603D01*
X410500Y405466D01*
X411544Y405603D01*
X412517Y406006D01*
X413353Y406647D01*
X413994Y407483D01*
X414397Y408456D01*
X414535Y409500D01*
X414397Y410544D01*
X413994Y411517D01*
X413353Y412353D01*
X412517Y412994D01*
X411544Y413397D01*
X410500Y413534D01*
D02*
G37*
G36*
X400500D02*
X399456Y413397D01*
X398483Y412994D01*
X397647Y412353D01*
X397006Y411517D01*
X396603Y410544D01*
X396465Y409500D01*
X396603Y408456D01*
X397006Y407483D01*
X397647Y406647D01*
X398483Y406006D01*
X399456Y405603D01*
X400500Y405466D01*
X401544Y405603D01*
X402517Y406006D01*
X403353Y406647D01*
X403994Y407483D01*
X404397Y408456D01*
X404534Y409500D01*
X404397Y410544D01*
X403994Y411517D01*
X403353Y412353D01*
X402517Y412994D01*
X401544Y413397D01*
X400500Y413534D01*
D02*
G37*
G36*
X390500D02*
X389456Y413397D01*
X388483Y412994D01*
X387647Y412353D01*
X387006Y411517D01*
X386603Y410544D01*
X386466Y409500D01*
X386603Y408456D01*
X387006Y407483D01*
X387647Y406647D01*
X388483Y406006D01*
X389456Y405603D01*
X390500Y405466D01*
X391544Y405603D01*
X392517Y406006D01*
X393353Y406647D01*
X393994Y407483D01*
X394397Y408456D01*
X394534Y409500D01*
X394397Y410544D01*
X393994Y411517D01*
X393353Y412353D01*
X392517Y412994D01*
X391544Y413397D01*
X390500Y413534D01*
D02*
G37*
G36*
X380500D02*
X379456Y413397D01*
X378483Y412994D01*
X377647Y412353D01*
X377006Y411517D01*
X376603Y410544D01*
X376466Y409500D01*
X376603Y408456D01*
X377006Y407483D01*
X377647Y406647D01*
X378483Y406006D01*
X379456Y405603D01*
X380500Y405466D01*
X381544Y405603D01*
X382517Y406006D01*
X383353Y406647D01*
X383994Y407483D01*
X384397Y408456D01*
X384535Y409500D01*
X384397Y410544D01*
X383994Y411517D01*
X383353Y412353D01*
X382517Y412994D01*
X381544Y413397D01*
X380500Y413534D01*
D02*
G37*
G36*
X370500D02*
X369456Y413397D01*
X368483Y412994D01*
X367647Y412353D01*
X367006Y411517D01*
X366603Y410544D01*
X366465Y409500D01*
X366603Y408456D01*
X367006Y407483D01*
X367647Y406647D01*
X368483Y406006D01*
X369456Y405603D01*
X370500Y405466D01*
X371544Y405603D01*
X372517Y406006D01*
X373353Y406647D01*
X373994Y407483D01*
X374397Y408456D01*
X374535Y409500D01*
X374397Y410544D01*
X373994Y411517D01*
X373353Y412353D01*
X372517Y412994D01*
X371544Y413397D01*
X370500Y413534D01*
D02*
G37*
G36*
X360500D02*
X359456Y413397D01*
X358483Y412994D01*
X357647Y412353D01*
X357006Y411517D01*
X356603Y410544D01*
X356466Y409500D01*
X356603Y408456D01*
X357006Y407483D01*
X357647Y406647D01*
X358483Y406006D01*
X359456Y405603D01*
X360500Y405466D01*
X361544Y405603D01*
X362517Y406006D01*
X363353Y406647D01*
X363994Y407483D01*
X364397Y408456D01*
X364534Y409500D01*
X364397Y410544D01*
X363994Y411517D01*
X363353Y412353D01*
X362517Y412994D01*
X361544Y413397D01*
X360500Y413534D01*
D02*
G37*
G36*
X350500D02*
X349456Y413397D01*
X348483Y412994D01*
X347647Y412353D01*
X347006Y411517D01*
X346603Y410544D01*
X346465Y409500D01*
X346603Y408456D01*
X347006Y407483D01*
X347647Y406647D01*
X348483Y406006D01*
X349456Y405603D01*
X350500Y405466D01*
X351544Y405603D01*
X352517Y406006D01*
X353353Y406647D01*
X353994Y407483D01*
X354397Y408456D01*
X354535Y409500D01*
X354397Y410544D01*
X353994Y411517D01*
X353353Y412353D01*
X352517Y412994D01*
X351544Y413397D01*
X350500Y413534D01*
D02*
G37*
G36*
X302000Y400964D02*
Y398000D01*
X304964D01*
X304910Y398414D01*
X304557Y399265D01*
X303996Y399996D01*
X303265Y400557D01*
X302414Y400910D01*
X302000Y400964D01*
D02*
G37*
G36*
X301000D02*
X300586Y400910D01*
X299735Y400557D01*
X299004Y399996D01*
X298443Y399265D01*
X298090Y398414D01*
X298036Y398000D01*
X301000D01*
Y400964D01*
D02*
G37*
G36*
X304964Y397000D02*
X302000D01*
Y394036D01*
X302414Y394090D01*
X303265Y394443D01*
X303996Y395004D01*
X304557Y395735D01*
X304910Y396586D01*
X304964Y397000D01*
D02*
G37*
G36*
X301000D02*
X298036D01*
X298090Y396586D01*
X298443Y395735D01*
X299004Y395004D01*
X299735Y394443D01*
X300586Y394090D01*
X301000Y394036D01*
Y397000D01*
D02*
G37*
G36*
X266000Y392818D02*
Y389000D01*
X269818D01*
X269735Y389635D01*
X269297Y390692D01*
X268600Y391600D01*
X267692Y392297D01*
X266635Y392735D01*
X266000Y392818D01*
D02*
G37*
G36*
X265000D02*
X264365Y392735D01*
X263308Y392297D01*
X262400Y391600D01*
X261703Y390692D01*
X261265Y389635D01*
X261182Y389000D01*
X265000D01*
Y392818D01*
D02*
G37*
G36*
X316500Y408029D02*
X226500D01*
X225915Y407913D01*
X225419Y407581D01*
X222419Y404581D01*
X222087Y404085D01*
X221971Y403500D01*
Y234000D01*
X222087Y233415D01*
X222419Y232919D01*
X226919Y228419D01*
X227415Y228087D01*
X228000Y227971D01*
X282867D01*
X285419Y225419D01*
X285915Y225087D01*
X286500Y224971D01*
X347500D01*
X348085Y225087D01*
X348581Y225419D01*
X348968Y225805D01*
X349456Y225603D01*
X350500Y225465D01*
X351544Y225603D01*
X352517Y226006D01*
X353353Y226647D01*
X353994Y227483D01*
X354397Y228456D01*
X354535Y229500D01*
X354397Y230544D01*
X353994Y231517D01*
X353353Y232353D01*
X352517Y232994D01*
X351544Y233397D01*
X350986Y233471D01*
X351018Y233971D01*
X359982D01*
X360015Y233471D01*
X359456Y233397D01*
X358483Y232994D01*
X357647Y232353D01*
X357006Y231517D01*
X356603Y230544D01*
X356466Y229500D01*
X356603Y228456D01*
X357006Y227483D01*
X357647Y226647D01*
X358483Y226006D01*
X359456Y225603D01*
X360500Y225465D01*
X361544Y225603D01*
X362517Y226006D01*
X363353Y226647D01*
X363994Y227483D01*
X364397Y228456D01*
X364534Y229500D01*
X364397Y230544D01*
X363994Y231517D01*
X363353Y232353D01*
X362517Y232994D01*
X361544Y233397D01*
X360985Y233471D01*
X361018Y233971D01*
X369982D01*
X370015Y233471D01*
X369456Y233397D01*
X368483Y232994D01*
X367647Y232353D01*
X367006Y231517D01*
X366603Y230544D01*
X366465Y229500D01*
X366603Y228456D01*
X367006Y227483D01*
X367647Y226647D01*
X368483Y226006D01*
X369456Y225603D01*
X370500Y225465D01*
X371544Y225603D01*
X372517Y226006D01*
X373353Y226647D01*
X373994Y227483D01*
X374397Y228456D01*
X374535Y229500D01*
X374397Y230544D01*
X373994Y231517D01*
X373353Y232353D01*
X372517Y232994D01*
X371544Y233397D01*
X370986Y233471D01*
X371018Y233971D01*
X374366D01*
X376952Y231386D01*
X376603Y230544D01*
X376466Y229500D01*
X376603Y228456D01*
X377006Y227483D01*
X377647Y226647D01*
X378483Y226006D01*
X379456Y225603D01*
X380500Y225465D01*
X381544Y225603D01*
X382517Y226006D01*
X383353Y226647D01*
X383994Y227483D01*
X384397Y228456D01*
X384488Y229142D01*
X385015Y229322D01*
X385919Y228419D01*
X386415Y228087D01*
X386786Y228013D01*
X387006Y227483D01*
X387647Y226647D01*
X388483Y226006D01*
X389456Y225603D01*
X390500Y225465D01*
X391544Y225603D01*
X392517Y226006D01*
X393353Y226647D01*
X393994Y227483D01*
X394397Y228456D01*
X394534Y229500D01*
X394397Y230544D01*
X393994Y231517D01*
X393353Y232353D01*
X392517Y232994D01*
X391544Y233397D01*
X390500Y233535D01*
X389456Y233397D01*
X388483Y232994D01*
X387647Y232353D01*
X387297Y231897D01*
X386799Y231864D01*
X379081Y239581D01*
X378585Y239913D01*
X378000Y240029D01*
X323133D01*
X320581Y242581D01*
X320085Y242913D01*
X319500Y243029D01*
X261633D01*
X257029Y247634D01*
Y250929D01*
X257692Y251203D01*
X258600Y251900D01*
X259297Y252808D01*
X259735Y253865D01*
X259884Y255000D01*
X259735Y256135D01*
X259297Y257192D01*
X258600Y258100D01*
X257692Y258797D01*
X256635Y259235D01*
X255500Y259384D01*
X254365Y259235D01*
X253308Y258797D01*
X252400Y258100D01*
X251703Y257192D01*
X251265Y256135D01*
X251116Y255000D01*
X251265Y253865D01*
X251703Y252808D01*
X252400Y251900D01*
X253308Y251203D01*
X253971Y250929D01*
Y247000D01*
X254087Y246415D01*
X254419Y245919D01*
X259808Y240529D01*
X259671Y240092D01*
X259623Y240029D01*
X254134D01*
X247029Y247133D01*
Y250929D01*
X247692Y251203D01*
X248600Y251900D01*
X249297Y252808D01*
X249735Y253865D01*
X249884Y255000D01*
X249735Y256135D01*
X249297Y257192D01*
X248600Y258100D01*
X247692Y258797D01*
X246635Y259235D01*
X245500Y259384D01*
X244365Y259235D01*
X243308Y258797D01*
X242400Y258100D01*
X241703Y257192D01*
X241265Y256135D01*
X241116Y255000D01*
X241265Y253865D01*
X241703Y252808D01*
X242400Y251900D01*
X243308Y251203D01*
X243971Y250929D01*
Y246500D01*
X244087Y245915D01*
X244419Y245419D01*
X252419Y237419D01*
X252915Y237087D01*
X253500Y236971D01*
X316038D01*
X318590Y234419D01*
X319086Y234087D01*
X319672Y233971D01*
X349982D01*
X350014Y233471D01*
X349456Y233397D01*
X348483Y232994D01*
X347647Y232353D01*
X347006Y231517D01*
X346603Y230544D01*
X346465Y229500D01*
X346593Y228529D01*
X346507Y228295D01*
X346330Y228029D01*
X287134D01*
X284581Y230581D01*
X284085Y230913D01*
X283500Y231029D01*
X228633D01*
X225029Y234633D01*
Y402867D01*
X227133Y404971D01*
X315866D01*
X331919Y388919D01*
X332415Y388587D01*
X333000Y388471D01*
X335845D01*
X335943Y388235D01*
X336504Y387504D01*
X337235Y386943D01*
X338086Y386590D01*
X339000Y386470D01*
X339914Y386590D01*
X340765Y386943D01*
X341496Y387504D01*
X342057Y388235D01*
X342410Y389086D01*
X342530Y390000D01*
X342410Y390914D01*
X342057Y391765D01*
X341496Y392496D01*
X340765Y393057D01*
X339914Y393410D01*
X339000Y393530D01*
X338086Y393410D01*
X337235Y393057D01*
X336504Y392496D01*
X335943Y391765D01*
X335845Y391529D01*
X333633D01*
X317581Y407581D01*
X317085Y407913D01*
X316500Y408029D01*
D02*
G37*
G36*
X269818Y388000D02*
X266000D01*
Y384182D01*
X266635Y384265D01*
X267692Y384703D01*
X268600Y385400D01*
X269297Y386308D01*
X269735Y387365D01*
X269818Y388000D01*
D02*
G37*
G36*
X265000D02*
X261182D01*
X261265Y387365D01*
X261703Y386308D01*
X262400Y385400D01*
X263308Y384703D01*
X264365Y384265D01*
X265000Y384182D01*
Y388000D01*
D02*
G37*
G36*
X259846Y392846D02*
X251153D01*
Y384154D01*
X259846D01*
Y392846D01*
D02*
G37*
G36*
X275500Y392884D02*
X274365Y392735D01*
X273308Y392297D01*
X272400Y391600D01*
X271703Y390692D01*
X271265Y389635D01*
X271116Y388500D01*
X271265Y387365D01*
X271703Y386308D01*
X272400Y385400D01*
X273308Y384703D01*
X274365Y384265D01*
X275500Y384116D01*
X276635Y384265D01*
X277692Y384703D01*
X278600Y385400D01*
X279297Y386308D01*
X279735Y387365D01*
X279884Y388500D01*
X279735Y389635D01*
X279297Y390692D01*
X278600Y391600D01*
X277692Y392297D01*
X276635Y392735D01*
X275500Y392884D01*
D02*
G37*
G36*
X321500Y379964D02*
Y377000D01*
X324464D01*
X324410Y377414D01*
X324057Y378265D01*
X323496Y378996D01*
X322765Y379557D01*
X321914Y379910D01*
X321500Y379964D01*
D02*
G37*
G36*
X320500D02*
X320086Y379910D01*
X319235Y379557D01*
X318504Y378996D01*
X317943Y378265D01*
X317590Y377414D01*
X317536Y377000D01*
X320500D01*
Y379964D01*
D02*
G37*
G36*
X363676Y377890D02*
Y374926D01*
X366640D01*
X366586Y375340D01*
X366233Y376191D01*
X365672Y376922D01*
X364941Y377483D01*
X364090Y377836D01*
X363676Y377890D01*
D02*
G37*
G36*
X362676D02*
X362262Y377836D01*
X361411Y377483D01*
X360680Y376922D01*
X360119Y376191D01*
X359766Y375340D01*
X359712Y374926D01*
X362676D01*
Y377890D01*
D02*
G37*
G36*
X324464Y376000D02*
X321500D01*
Y373036D01*
X321914Y373090D01*
X322765Y373443D01*
X323496Y374004D01*
X324057Y374735D01*
X324410Y375586D01*
X324464Y376000D01*
D02*
G37*
G36*
X320500D02*
X317536D01*
X317590Y375586D01*
X317943Y374735D01*
X318504Y374004D01*
X319235Y373443D01*
X320086Y373090D01*
X320500Y373036D01*
Y376000D01*
D02*
G37*
G36*
X366640Y373926D02*
X363676D01*
Y370962D01*
X364090Y371016D01*
X364941Y371369D01*
X365672Y371930D01*
X366233Y372661D01*
X366586Y373512D01*
X366640Y373926D01*
D02*
G37*
G36*
X362676D02*
X359712D01*
X359766Y373512D01*
X360119Y372661D01*
X360680Y371930D01*
X361411Y371369D01*
X362262Y371016D01*
X362676Y370962D01*
Y373926D01*
D02*
G37*
G36*
X174500Y372464D02*
Y369500D01*
X177464D01*
X177410Y369914D01*
X177057Y370765D01*
X176496Y371496D01*
X175765Y372057D01*
X174914Y372410D01*
X174500Y372464D01*
D02*
G37*
G36*
X173500D02*
X173086Y372410D01*
X172235Y372057D01*
X171504Y371496D01*
X170943Y370765D01*
X170590Y369914D01*
X170536Y369500D01*
X173500D01*
Y372464D01*
D02*
G37*
G36*
X150500D02*
Y369500D01*
X153464D01*
X153410Y369914D01*
X153057Y370765D01*
X152496Y371496D01*
X151765Y372057D01*
X150914Y372410D01*
X150500Y372464D01*
D02*
G37*
G36*
X149500D02*
X149086Y372410D01*
X148235Y372057D01*
X147504Y371496D01*
X146943Y370765D01*
X146590Y369914D01*
X146536Y369500D01*
X149500D01*
Y372464D01*
D02*
G37*
G36*
X245000Y370964D02*
Y368000D01*
X247964D01*
X247910Y368414D01*
X247557Y369265D01*
X246996Y369996D01*
X246265Y370557D01*
X245414Y370910D01*
X245000Y370964D01*
D02*
G37*
G36*
X244000D02*
X243586Y370910D01*
X242735Y370557D01*
X242004Y369996D01*
X241443Y369265D01*
X241090Y368414D01*
X241036Y368000D01*
X244000D01*
Y370964D01*
D02*
G37*
G36*
X209000D02*
Y368000D01*
X211964D01*
X211910Y368414D01*
X211557Y369265D01*
X210996Y369996D01*
X210265Y370557D01*
X209414Y370910D01*
X209000Y370964D01*
D02*
G37*
G36*
X208000D02*
X207586Y370910D01*
X206735Y370557D01*
X206004Y369996D01*
X205443Y369265D01*
X205090Y368414D01*
X205036Y368000D01*
X208000D01*
Y370964D01*
D02*
G37*
G36*
X177464Y368500D02*
X174500D01*
Y365536D01*
X174914Y365590D01*
X175765Y365943D01*
X176496Y366504D01*
X177057Y367235D01*
X177410Y368086D01*
X177464Y368500D01*
D02*
G37*
G36*
X173500D02*
X170536D01*
X170590Y368086D01*
X170943Y367235D01*
X171504Y366504D01*
X172235Y365943D01*
X173086Y365590D01*
X173500Y365536D01*
Y368500D01*
D02*
G37*
G36*
X153464D02*
X150500D01*
Y365536D01*
X150914Y365590D01*
X151765Y365943D01*
X152496Y366504D01*
X153057Y367235D01*
X153410Y368086D01*
X153464Y368500D01*
D02*
G37*
G36*
X149500D02*
X146536D01*
X146590Y368086D01*
X146943Y367235D01*
X147504Y366504D01*
X148235Y365943D01*
X149086Y365590D01*
X149500Y365536D01*
Y368500D01*
D02*
G37*
G36*
X247964Y367000D02*
X245000D01*
Y364036D01*
X245414Y364090D01*
X246265Y364443D01*
X246996Y365004D01*
X247557Y365735D01*
X247910Y366586D01*
X247964Y367000D01*
D02*
G37*
G36*
X244000D02*
X241036D01*
X241090Y366586D01*
X241443Y365735D01*
X242004Y365004D01*
X242735Y364443D01*
X243586Y364090D01*
X244000Y364036D01*
Y367000D01*
D02*
G37*
G36*
X211964D02*
X209000D01*
Y364036D01*
X209414Y364090D01*
X210265Y364443D01*
X210996Y365004D01*
X211557Y365735D01*
X211910Y366586D01*
X211964Y367000D01*
D02*
G37*
G36*
X208000D02*
X205036D01*
X205090Y366586D01*
X205443Y365735D01*
X206004Y365004D01*
X206735Y364443D01*
X207586Y364090D01*
X208000Y364036D01*
Y367000D01*
D02*
G37*
G36*
X200847Y339347D02*
X192154D01*
Y330654D01*
X200847D01*
Y339347D01*
D02*
G37*
G36*
X264500Y333464D02*
Y330500D01*
X267464D01*
X267410Y330914D01*
X267057Y331765D01*
X266496Y332496D01*
X265765Y333057D01*
X264914Y333410D01*
X264500Y333464D01*
D02*
G37*
G36*
X263500D02*
X263086Y333410D01*
X262235Y333057D01*
X261504Y332496D01*
X260943Y331765D01*
X260590Y330914D01*
X260536Y330500D01*
X263500D01*
Y333464D01*
D02*
G37*
G36*
X267464Y329500D02*
X264500D01*
Y326536D01*
X264914Y326590D01*
X265765Y326943D01*
X266496Y327504D01*
X267057Y328235D01*
X267410Y329086D01*
X267464Y329500D01*
D02*
G37*
G36*
X263500D02*
X260536D01*
X260590Y329086D01*
X260943Y328235D01*
X261504Y327504D01*
X262235Y326943D01*
X263086Y326590D01*
X263500Y326536D01*
Y329500D01*
D02*
G37*
G36*
X196500Y329384D02*
X195365Y329235D01*
X194308Y328797D01*
X193400Y328100D01*
X192703Y327192D01*
X192265Y326135D01*
X192116Y325000D01*
X192265Y323865D01*
X192703Y322808D01*
X193400Y321900D01*
X194308Y321203D01*
X195365Y320765D01*
X196500Y320616D01*
X197635Y320765D01*
X198692Y321203D01*
X199600Y321900D01*
X200297Y322808D01*
X200735Y323865D01*
X200884Y325000D01*
X200735Y326135D01*
X200297Y327192D01*
X199600Y328100D01*
X198692Y328797D01*
X197635Y329235D01*
X196500Y329384D01*
D02*
G37*
G36*
X242846Y318847D02*
X239000D01*
Y315000D01*
X242846D01*
Y318847D01*
D02*
G37*
G36*
X238000D02*
X234154D01*
Y315000D01*
X238000D01*
Y318847D01*
D02*
G37*
G36*
X242846Y314000D02*
X239000D01*
Y310154D01*
X242846D01*
Y314000D01*
D02*
G37*
G36*
X238000D02*
X234154D01*
Y310154D01*
X238000D01*
Y314000D01*
D02*
G37*
G36*
X170000Y312464D02*
Y309500D01*
X172964D01*
X172910Y309914D01*
X172557Y310765D01*
X171996Y311496D01*
X171265Y312057D01*
X170414Y312410D01*
X170000Y312464D01*
D02*
G37*
G36*
X169000D02*
X168586Y312410D01*
X167735Y312057D01*
X167004Y311496D01*
X166443Y310765D01*
X166090Y309914D01*
X166036Y309500D01*
X169000D01*
Y312464D01*
D02*
G37*
G36*
X172964Y308500D02*
X170000D01*
Y305536D01*
X170414Y305590D01*
X171265Y305943D01*
X171996Y306504D01*
X172557Y307235D01*
X172910Y308086D01*
X172964Y308500D01*
D02*
G37*
G36*
X169000D02*
X166036D01*
X166090Y308086D01*
X166443Y307235D01*
X167004Y306504D01*
X167735Y305943D01*
X168586Y305590D01*
X169000Y305536D01*
Y308500D01*
D02*
G37*
G36*
X238500Y308884D02*
X237365Y308735D01*
X236308Y308297D01*
X235400Y307600D01*
X234703Y306692D01*
X234265Y305635D01*
X234116Y304500D01*
X234265Y303365D01*
X234703Y302308D01*
X235400Y301400D01*
X236308Y300703D01*
X237365Y300265D01*
X238500Y300116D01*
X239635Y300265D01*
X240692Y300703D01*
X241600Y301400D01*
X242297Y302308D01*
X242735Y303365D01*
X242884Y304500D01*
X242735Y305635D01*
X242297Y306692D01*
X241600Y307600D01*
X240692Y308297D01*
X239635Y308735D01*
X238500Y308884D01*
D02*
G37*
G36*
Y298884D02*
X237365Y298735D01*
X236308Y298297D01*
X235400Y297600D01*
X234703Y296692D01*
X234265Y295635D01*
X234116Y294500D01*
X234265Y293365D01*
X234703Y292308D01*
X235400Y291400D01*
X236308Y290703D01*
X237365Y290265D01*
X238500Y290116D01*
X239635Y290265D01*
X240692Y290703D01*
X241600Y291400D01*
X242297Y292308D01*
X242735Y293365D01*
X242884Y294500D01*
X242735Y295635D01*
X242297Y296692D01*
X241600Y297600D01*
X240692Y298297D01*
X239635Y298735D01*
X238500Y298884D01*
D02*
G37*
G36*
X266000Y289964D02*
Y287000D01*
X268964D01*
X268910Y287414D01*
X268557Y288265D01*
X267996Y288996D01*
X267265Y289557D01*
X266414Y289910D01*
X266000Y289964D01*
D02*
G37*
G36*
X265000D02*
X264586Y289910D01*
X263735Y289557D01*
X263004Y288996D01*
X262443Y288265D01*
X262090Y287414D01*
X262036Y287000D01*
X265000D01*
Y289964D01*
D02*
G37*
G36*
X196500Y292884D02*
X195365Y292735D01*
X194308Y292297D01*
X193400Y291600D01*
X192703Y290692D01*
X192265Y289635D01*
X192116Y288500D01*
X192265Y287365D01*
X192703Y286308D01*
X193400Y285400D01*
X194308Y284703D01*
X195365Y284265D01*
X196500Y284116D01*
X197635Y284265D01*
X198692Y284703D01*
X199600Y285400D01*
X200297Y286308D01*
X200735Y287365D01*
X200884Y288500D01*
X200735Y289635D01*
X200297Y290692D01*
X199600Y291600D01*
X198692Y292297D01*
X197635Y292735D01*
X196500Y292884D01*
D02*
G37*
G36*
X268964Y286000D02*
X266000D01*
Y283036D01*
X266414Y283090D01*
X267265Y283443D01*
X267996Y284004D01*
X268557Y284735D01*
X268910Y285586D01*
X268964Y286000D01*
D02*
G37*
G36*
X265000D02*
X262036D01*
X262090Y285586D01*
X262443Y284735D01*
X263004Y284004D01*
X263735Y283443D01*
X264586Y283090D01*
X265000Y283036D01*
Y286000D01*
D02*
G37*
G36*
X166500Y288530D02*
X165586Y288410D01*
X164735Y288057D01*
X164004Y287496D01*
X163443Y286765D01*
X163090Y285914D01*
X162970Y285000D01*
X163045Y284429D01*
X153058Y274442D01*
X152616Y273780D01*
X152461Y273000D01*
Y263874D01*
X150547D01*
Y255968D01*
X158453D01*
Y263874D01*
X156539D01*
Y272155D01*
X165929Y281545D01*
X166500Y281470D01*
X167414Y281590D01*
X168265Y281943D01*
X168996Y282504D01*
X169557Y283235D01*
X169910Y284086D01*
X170030Y285000D01*
X169910Y285914D01*
X169557Y286765D01*
X168996Y287496D01*
X168265Y288057D01*
X167414Y288410D01*
X166500Y288530D01*
D02*
G37*
G36*
X200847Y282846D02*
X192154D01*
Y274153D01*
X200847D01*
Y282846D01*
D02*
G37*
G36*
X407000Y262964D02*
Y260000D01*
X409964D01*
X409910Y260414D01*
X409557Y261265D01*
X408996Y261996D01*
X408265Y262557D01*
X407414Y262910D01*
X407000Y262964D01*
D02*
G37*
G36*
X406000D02*
X405586Y262910D01*
X404735Y262557D01*
X404004Y261996D01*
X403443Y261265D01*
X403090Y260414D01*
X403036Y260000D01*
X406000D01*
Y262964D01*
D02*
G37*
G36*
X390500D02*
Y260000D01*
X393464D01*
X393410Y260414D01*
X393057Y261265D01*
X392496Y261996D01*
X391765Y262557D01*
X390914Y262910D01*
X390500Y262964D01*
D02*
G37*
G36*
X389500D02*
X389086Y262910D01*
X388235Y262557D01*
X387504Y261996D01*
X386943Y261265D01*
X386590Y260414D01*
X386536Y260000D01*
X389500D01*
Y262964D01*
D02*
G37*
G36*
X374000D02*
Y260000D01*
X376964D01*
X376910Y260414D01*
X376557Y261265D01*
X375996Y261996D01*
X375265Y262557D01*
X374414Y262910D01*
X374000Y262964D01*
D02*
G37*
G36*
X373000D02*
X372586Y262910D01*
X371735Y262557D01*
X371004Y261996D01*
X370443Y261265D01*
X370090Y260414D01*
X370036Y260000D01*
X373000D01*
Y262964D01*
D02*
G37*
G36*
X359000D02*
Y260000D01*
X361964D01*
X361910Y260414D01*
X361557Y261265D01*
X360996Y261996D01*
X360265Y262557D01*
X359414Y262910D01*
X359000Y262964D01*
D02*
G37*
G36*
X358000D02*
X357586Y262910D01*
X356735Y262557D01*
X356004Y261996D01*
X355443Y261265D01*
X355090Y260414D01*
X355036Y260000D01*
X358000D01*
Y262964D01*
D02*
G37*
G36*
X409964Y259000D02*
X407000D01*
Y256036D01*
X407414Y256090D01*
X408265Y256443D01*
X408996Y257004D01*
X409557Y257735D01*
X409910Y258586D01*
X409964Y259000D01*
D02*
G37*
G36*
X406000D02*
X403036D01*
X403090Y258586D01*
X403443Y257735D01*
X404004Y257004D01*
X404735Y256443D01*
X405586Y256090D01*
X406000Y256036D01*
Y259000D01*
D02*
G37*
G36*
X393464D02*
X390500D01*
Y256036D01*
X390914Y256090D01*
X391765Y256443D01*
X392496Y257004D01*
X393057Y257735D01*
X393410Y258586D01*
X393464Y259000D01*
D02*
G37*
G36*
X389500D02*
X386536D01*
X386590Y258586D01*
X386943Y257735D01*
X387504Y257004D01*
X388235Y256443D01*
X389086Y256090D01*
X389500Y256036D01*
Y259000D01*
D02*
G37*
G36*
X376964D02*
X374000D01*
Y256036D01*
X374414Y256090D01*
X375265Y256443D01*
X375996Y257004D01*
X376557Y257735D01*
X376910Y258586D01*
X376964Y259000D01*
D02*
G37*
G36*
X373000D02*
X370036D01*
X370090Y258586D01*
X370443Y257735D01*
X371004Y257004D01*
X371735Y256443D01*
X372586Y256090D01*
X373000Y256036D01*
Y259000D01*
D02*
G37*
G36*
X361964D02*
X359000D01*
Y256036D01*
X359414Y256090D01*
X360265Y256443D01*
X360996Y257004D01*
X361557Y257735D01*
X361910Y258586D01*
X361964Y259000D01*
D02*
G37*
G36*
X358000D02*
X355036D01*
X355090Y258586D01*
X355443Y257735D01*
X356004Y257004D01*
X356735Y256443D01*
X357586Y256090D01*
X358000Y256036D01*
Y259000D01*
D02*
G37*
G36*
X236000Y259318D02*
Y255500D01*
X239818D01*
X239735Y256135D01*
X239297Y257192D01*
X238600Y258100D01*
X237692Y258797D01*
X236635Y259235D01*
X236000Y259318D01*
D02*
G37*
G36*
X235000D02*
X234365Y259235D01*
X233308Y258797D01*
X232400Y258100D01*
X231703Y257192D01*
X231265Y256135D01*
X231182Y255500D01*
X235000D01*
Y259318D01*
D02*
G37*
G36*
X239818Y254500D02*
X236000D01*
Y250682D01*
X236635Y250765D01*
X237692Y251203D01*
X238600Y251900D01*
X239297Y252808D01*
X239735Y253865D01*
X239818Y254500D01*
D02*
G37*
G36*
X235000D02*
X231182D01*
X231265Y253865D01*
X231703Y252808D01*
X232400Y251900D01*
X233308Y251203D01*
X234365Y250765D01*
X235000Y250682D01*
Y254500D01*
D02*
G37*
G36*
X155000Y254000D02*
Y250579D01*
X158421D01*
X158351Y251111D01*
X157953Y252072D01*
X157319Y252898D01*
X156493Y253532D01*
X155532Y253930D01*
X155000Y254000D01*
D02*
G37*
G36*
X154000D02*
X153468Y253930D01*
X152507Y253532D01*
X151681Y252898D01*
X151047Y252072D01*
X150649Y251111D01*
X150579Y250579D01*
X154000D01*
Y254000D01*
D02*
G37*
G36*
X158421Y249579D02*
X155000D01*
Y246158D01*
X155532Y246228D01*
X156493Y246626D01*
X157319Y247260D01*
X157953Y248085D01*
X158351Y249047D01*
X158421Y249579D01*
D02*
G37*
G36*
X154000D02*
X150579D01*
X150649Y249047D01*
X151047Y248085D01*
X151681Y247260D01*
X152507Y246626D01*
X153468Y246228D01*
X154000Y246158D01*
Y249579D01*
D02*
G37*
G36*
X170000Y244964D02*
Y242000D01*
X172964D01*
X172910Y242414D01*
X172557Y243265D01*
X171996Y243996D01*
X171265Y244557D01*
X170414Y244910D01*
X170000Y244964D01*
D02*
G37*
G36*
X169000D02*
X168586Y244910D01*
X167735Y244557D01*
X167004Y243996D01*
X166443Y243265D01*
X166090Y242414D01*
X166036Y242000D01*
X169000D01*
Y244964D01*
D02*
G37*
G36*
X172964Y241000D02*
X170000D01*
Y238036D01*
X170414Y238090D01*
X171265Y238443D01*
X171996Y239004D01*
X172557Y239735D01*
X172910Y240586D01*
X172964Y241000D01*
D02*
G37*
G36*
X169000D02*
X166036D01*
X166090Y240586D01*
X166443Y239735D01*
X167004Y239004D01*
X167735Y238443D01*
X168586Y238090D01*
X169000Y238036D01*
Y241000D01*
D02*
G37*
G36*
X440500Y233535D02*
X439456Y233397D01*
X438483Y232994D01*
X437647Y232353D01*
X437006Y231517D01*
X436603Y230544D01*
X436466Y229500D01*
X436603Y228456D01*
X437006Y227483D01*
X437647Y226647D01*
X438483Y226006D01*
X439456Y225603D01*
X440500Y225465D01*
X441544Y225603D01*
X442517Y226006D01*
X443353Y226647D01*
X443994Y227483D01*
X444397Y228456D01*
X444534Y229500D01*
X444397Y230544D01*
X443994Y231517D01*
X443353Y232353D01*
X442517Y232994D01*
X441544Y233397D01*
X440500Y233535D01*
D02*
G37*
G36*
X430500D02*
X429456Y233397D01*
X428483Y232994D01*
X427647Y232353D01*
X427006Y231517D01*
X426603Y230544D01*
X426466Y229500D01*
X426603Y228456D01*
X427006Y227483D01*
X427647Y226647D01*
X428483Y226006D01*
X429456Y225603D01*
X430500Y225465D01*
X431544Y225603D01*
X432517Y226006D01*
X433353Y226647D01*
X433994Y227483D01*
X434397Y228456D01*
X434535Y229500D01*
X434397Y230544D01*
X433994Y231517D01*
X433353Y232353D01*
X432517Y232994D01*
X431544Y233397D01*
X430500Y233535D01*
D02*
G37*
G36*
X420500D02*
X419456Y233397D01*
X418483Y232994D01*
X417647Y232353D01*
X417006Y231517D01*
X416603Y230544D01*
X416466Y229500D01*
X416603Y228456D01*
X417006Y227483D01*
X417647Y226647D01*
X418483Y226006D01*
X419456Y225603D01*
X420500Y225465D01*
X421544Y225603D01*
X422517Y226006D01*
X423353Y226647D01*
X423994Y227483D01*
X424397Y228456D01*
X424535Y229500D01*
X424397Y230544D01*
X423994Y231517D01*
X423353Y232353D01*
X422517Y232994D01*
X421544Y233397D01*
X420500Y233535D01*
D02*
G37*
G36*
X410500D02*
X409456Y233397D01*
X408483Y232994D01*
X407647Y232353D01*
X407006Y231517D01*
X406603Y230544D01*
X406465Y229500D01*
X406603Y228456D01*
X407006Y227483D01*
X407647Y226647D01*
X408483Y226006D01*
X409456Y225603D01*
X410500Y225465D01*
X411544Y225603D01*
X412517Y226006D01*
X413353Y226647D01*
X413994Y227483D01*
X414397Y228456D01*
X414535Y229500D01*
X414397Y230544D01*
X413994Y231517D01*
X413353Y232353D01*
X412517Y232994D01*
X411544Y233397D01*
X410500Y233535D01*
D02*
G37*
G36*
X400500D02*
X399456Y233397D01*
X398483Y232994D01*
X397647Y232353D01*
X397006Y231517D01*
X396603Y230544D01*
X396465Y229500D01*
X396603Y228456D01*
X397006Y227483D01*
X397647Y226647D01*
X398483Y226006D01*
X399456Y225603D01*
X400500Y225465D01*
X401544Y225603D01*
X402517Y226006D01*
X403353Y226647D01*
X403994Y227483D01*
X404397Y228456D01*
X404534Y229500D01*
X404397Y230544D01*
X403994Y231517D01*
X403353Y232353D01*
X402517Y232994D01*
X401544Y233397D01*
X400500Y233535D01*
D02*
G37*
G36*
X136500Y219543D02*
X135195Y219371D01*
X133978Y218867D01*
X132934Y218066D01*
X132132Y217022D01*
X131629Y215805D01*
X131457Y214500D01*
X131629Y213195D01*
X132132Y211978D01*
X132934Y210934D01*
X133978Y210133D01*
X135195Y209629D01*
X136500Y209457D01*
X137805Y209629D01*
X139022Y210133D01*
X140066Y210934D01*
X140867Y211978D01*
X141371Y213195D01*
X141543Y214500D01*
X141371Y215805D01*
X140867Y217022D01*
X140066Y218066D01*
X139022Y218867D01*
X137805Y219371D01*
X136500Y219543D01*
D02*
G37*
%LPD*%
D14*
X223500Y234000D02*
Y403500D01*
X226500Y406500D02*
X316500D01*
X223500Y403500D02*
X226500Y406500D01*
X223500Y234000D02*
X228000Y229500D01*
X316500Y406500D02*
X333000Y390000D01*
X283500Y229500D02*
X286500Y226500D01*
X347500D01*
X228000Y229500D02*
X283500D01*
X333000Y390000D02*
X339000D01*
X253500Y238500D02*
X316672D01*
X245500Y246500D02*
X253500Y238500D01*
X245500Y246500D02*
Y255000D01*
X255500Y247000D02*
X261000Y241500D01*
X255500Y247000D02*
Y255000D01*
X261000Y241500D02*
X319500D01*
X322500Y238500D01*
X316672D02*
X319672Y235500D01*
X375000D01*
X378000Y238500D02*
X387000Y229500D01*
X322500Y238500D02*
X378000D01*
X375000Y235500D02*
X380500Y230000D01*
Y229500D02*
Y230000D01*
X347500Y226500D02*
X350500Y229500D01*
X387000D02*
X390500D01*
D51*
X169500Y343500D02*
X190500Y364500D01*
Y409500D02*
X199500Y418500D01*
X190500Y364500D02*
Y409500D01*
X431500Y418500D02*
X440500Y409500D01*
X199500Y418500D02*
X431500D01*
X169500Y339000D02*
Y343500D01*
X154500Y259921D02*
Y273000D01*
X166500Y285000D01*
X421500Y400500D02*
X432582D01*
X415500Y394500D02*
X421500Y400500D01*
X415500Y259500D02*
Y394500D01*
X432582Y400500D02*
X440500Y408418D01*
X324000Y258000D02*
X331500Y250500D01*
X268500Y258000D02*
X324000Y258000D01*
X265500Y255000D02*
X268500Y258000D01*
X406500Y250500D02*
X415500Y259500D01*
X331500Y250500D02*
X406500D01*
X440500Y408418D02*
Y409500D01*
D52*
X136500Y214500D02*
D03*
Y421500D02*
D03*
D53*
X154500Y259921D02*
D03*
D54*
Y250079D02*
D03*
D55*
X440500Y229500D02*
D03*
X430500D02*
D03*
X420500D02*
D03*
X410500D02*
D03*
X400500D02*
D03*
X390500D02*
D03*
X380500D02*
D03*
X370500D02*
D03*
X360500D02*
D03*
X350500D02*
D03*
Y409500D02*
D03*
X360500D02*
D03*
X370500D02*
D03*
X380500D02*
D03*
X390500D02*
D03*
X400500D02*
D03*
X410500D02*
D03*
X420500D02*
D03*
X430500D02*
D03*
X440500D02*
D03*
D56*
X235500Y255000D02*
D03*
X245500D02*
D03*
X255500D02*
D03*
X275500Y388500D02*
D03*
X265500D02*
D03*
X196500Y325000D02*
D03*
Y288500D02*
D03*
X238500Y294500D02*
D03*
Y304500D02*
D03*
D57*
X265500Y255000D02*
D03*
X255500Y388500D02*
D03*
D58*
X196500Y335000D02*
D03*
Y278500D02*
D03*
X238500Y314500D02*
D03*
D59*
X150000Y369000D02*
D03*
X264000Y330000D02*
D03*
X301500Y397500D02*
D03*
X321000Y376500D02*
D03*
X363176Y374426D02*
D03*
X265500Y286500D02*
D03*
X208500Y367500D02*
D03*
X174000Y369000D02*
D03*
X244500Y367500D02*
D03*
X339000Y390000D02*
D03*
X169500Y309000D02*
D03*
Y339000D02*
D03*
X166500Y285000D02*
D03*
X169500Y241500D02*
D03*
X406500Y259500D02*
D03*
X390000D02*
D03*
X373500D02*
D03*
X358500D02*
D03*
M02*
