M48
;Layer_Color=9474304
;FILE_FORMAT=2:5
INCH,LZ
;TYPE=PLATED
T1F00S00C0.02800
T2F00S00C0.03000
T3F00S00C0.03937
T4F00S00C0.04685
T5F00S00C0.05000
%
T01
X03585Y02595
X03735
X039
X04065
X02655Y02865
X01665Y0285
X01695Y0309
Y02415
X015Y0369
X0174
X01695Y0339
X02085Y03675
X02445
X0264Y033
X03015Y03975
X0321Y03765
X0339Y039
X0363176Y0374426
T02
X03505Y02295
X03605
X03705
X03805
X03905
X04005
X04105
X04205
X04305
X04405
Y04095
X04305
X04205
X04105
X04005
X03905
X03805
X03705
X03605
X03505
T03
X01545Y0250079
Y0259921
T04
X01965Y02785
Y02885
X02385Y02945
Y03045
X02355Y0255
X02455
X02555
X02655
X02385Y03145
X01965Y0325
Y0335
X02555Y03885
X02655
X02755
T05
X01365Y02145
Y04215
M30
