G04*
G04 #@! TF.GenerationSoftware,Altium Limited,Altium Designer,19.1.7 (138)*
G04*
G04 Layer_Color=32768*
%FSLAX25Y25*%
%MOIN*%
G70*
G01*
G75*
%ADD16C,0.00394*%
%ADD60C,0.00197*%
D16*
X153000Y318516D02*
Y320484D01*
X152016Y319500D02*
X153984D01*
X160752Y298866D02*
Y307134D01*
X142248Y298866D02*
Y307134D01*
Y298866D02*
X160752D01*
X142248Y307134D02*
X160752D01*
X149531Y303000D02*
X153469D01*
X151500Y301031D02*
Y304969D01*
X151031Y289500D02*
X154969D01*
X153000Y287531D02*
Y291469D01*
X151031Y334500D02*
X154969D01*
X153000Y332531D02*
Y336469D01*
X154500Y253031D02*
Y256968D01*
X152532Y255000D02*
X156468D01*
X295532Y291000D02*
X299468D01*
X297500Y289032D02*
Y292969D01*
X248532Y255000D02*
X252468D01*
X250500Y253031D02*
Y256968D01*
X398260Y265126D02*
X405740D01*
X398260Y280874D02*
X405740D01*
X398260Y265126D02*
Y280874D01*
X405740Y265126D02*
Y280874D01*
X402000Y271031D02*
Y274969D01*
X400032Y273000D02*
X403968D01*
X365260Y265126D02*
X372740D01*
X365260Y280874D02*
X372740D01*
X365260Y265126D02*
Y280874D01*
X372740Y265126D02*
Y280874D01*
X369000Y271031D02*
Y274969D01*
X367032Y273000D02*
X370969D01*
X381760Y265126D02*
X389240D01*
X381760Y280874D02*
X389240D01*
X381760Y265126D02*
Y280874D01*
X389240Y265126D02*
Y280874D01*
X385500Y271031D02*
Y274969D01*
X383531Y273000D02*
X387469D01*
X350260Y265126D02*
X357740D01*
X350260Y280874D02*
X357740D01*
X350260Y265126D02*
Y280874D01*
X357740Y265126D02*
Y280874D01*
X354000Y271031D02*
Y274969D01*
X352031Y273000D02*
X355968D01*
X265500Y386531D02*
Y390469D01*
X263531Y388500D02*
X267469D01*
X316382Y362110D02*
Y375890D01*
X301618Y362110D02*
Y375890D01*
Y362110D02*
X316382D01*
X301618Y375890D02*
X316382D01*
X307031Y369000D02*
X310968D01*
X309000Y367032D02*
Y370969D01*
X300909Y331123D02*
Y335060D01*
X298941Y333091D02*
X302878D01*
X269807Y354351D02*
X332012D01*
X269807Y311832D02*
X332012D01*
X269807D02*
Y354351D01*
X332012Y311832D02*
Y354351D01*
X194532Y330000D02*
X198468D01*
X196500Y328031D02*
Y331968D01*
X194532Y283500D02*
X198468D01*
X196500Y281532D02*
Y285469D01*
X236531Y304500D02*
X240469D01*
X238500Y302532D02*
Y306469D01*
D60*
X141779Y315957D02*
X164220D01*
Y323043D01*
X141779Y315957D02*
Y323043D01*
X164220D01*
X144142Y285169D02*
Y293831D01*
X161858Y285169D02*
Y293831D01*
X144142D02*
X161858D01*
X144142Y285169D02*
X161858D01*
X143945Y329972D02*
Y339028D01*
X162055Y329972D02*
Y339028D01*
X143945D02*
X162055D01*
X143945Y329972D02*
X162055D01*
X140720Y240039D02*
X164146D01*
X140720Y269961D02*
X164146D01*
Y240039D02*
Y269961D01*
X140720Y240039D02*
Y269961D01*
X285689Y274465D02*
Y307535D01*
X309311Y274465D02*
Y307535D01*
X285689Y274465D02*
X309311D01*
X285689Y307535D02*
X309311D01*
X270894Y243189D02*
Y266811D01*
X230106Y243189D02*
X270894D01*
X230106D02*
Y266811D01*
X270894D01*
X250106Y400232D02*
X280893D01*
X250106Y376610D02*
X280893D01*
Y400232D01*
X250106Y376610D02*
Y400232D01*
X184689Y319606D02*
X208311D01*
X184689Y340393D02*
X208311D01*
X184689Y319606D02*
Y340393D01*
X208311Y319606D02*
Y340393D01*
X184689Y293894D02*
X208311D01*
X184689Y273107D02*
X208311D01*
Y293894D01*
X184689Y273107D02*
Y293894D01*
X250232Y289107D02*
Y319894D01*
X226610Y289107D02*
Y319894D01*
Y289107D02*
X250232D01*
X226610Y319894D02*
X250232D01*
M02*
