G04*
G04 #@! TF.GenerationSoftware,Altium Limited,Altium Designer,20.1.14 (287)*
G04*
G04 Layer_Physical_Order=1*
G04 Layer_Color=255*
%FSLAX24Y24*%
%MOIN*%
G70*
G04*
G04 #@! TF.SameCoordinates,F515B9C2-E365-413D-9E0A-47EE242F63FB*
G04*
G04*
G04 #@! TF.FilePolarity,Positive*
G04*
G01*
G75*
%ADD12C,0.0100*%
%ADD15C,0.0000*%
%ADD32R,0.0669X0.0433*%
%ADD33R,0.0400X0.0600*%
%ADD34R,0.0600X0.0400*%
%ADD35R,0.0472X0.0433*%
%ADD36R,0.0827X0.0551*%
%ADD37O,0.0276X0.0984*%
%ADD38R,0.0236X0.0551*%
%ADD39R,0.3386X0.4173*%
%ADD40R,0.0827X0.0394*%
%ADD41C,0.0200*%
%ADD42C,0.2400*%
%ADD43C,0.0630*%
%ADD44C,0.1201*%
%ADD45C,0.0600*%
%ADD46C,0.0669*%
%ADD47R,0.0669X0.0669*%
%ADD48C,0.0500*%
D12*
X24200Y28100D02*
X24500Y27800D01*
X25400D01*
X29500Y27781D02*
Y28135D01*
X29212Y27493D02*
X29500Y27781D01*
X27911Y27493D02*
X29212D01*
X27604Y27800D02*
X27911Y27493D01*
X26200Y27800D02*
X27604D01*
X29500Y28135D02*
X30000D01*
X24250Y31200D02*
X26250D01*
X18189Y36204D02*
X20850Y33543D01*
X18189Y38850D02*
X18921Y39582D01*
X18189Y36204D02*
Y38850D01*
X19059Y39582D02*
X22641D01*
X18921D02*
X19059D01*
X22641D02*
X22779D01*
X22031Y33543D02*
X23589Y35101D01*
Y38700D01*
X24471Y39582D02*
X24609D01*
X23589Y38700D02*
X24471Y39582D01*
X32700Y36000D02*
X33300D01*
X32100Y36500D02*
X32200D01*
X32700Y36000D01*
X32476Y38998D02*
Y39156D01*
X31432Y40200D02*
X32476Y39156D01*
X23397Y40200D02*
X31432D01*
X22779Y39582D02*
X23397Y40200D01*
X30300Y38950D02*
X31100D01*
X31800Y38250D01*
X32102D01*
Y37302D02*
Y38250D01*
X32100Y37300D02*
X32102Y37302D01*
X28191Y39582D02*
X29568D01*
X30200Y38950D01*
X30300D01*
X24609Y39582D02*
X28191D01*
X26250Y31200D02*
X27500Y29950D01*
X27600D01*
X27700D01*
X28500Y30750D01*
X29669D01*
X30000Y30065D02*
Y30419D01*
X29669Y30750D02*
X30000Y30419D01*
X23431Y31181D02*
X23450Y31200D01*
X22031Y31181D02*
X23431D01*
X24250Y30000D02*
Y30100D01*
X23825Y30525D02*
X24250Y30100D01*
X23725Y30525D02*
X23825D01*
X23450Y30800D02*
X23725Y30525D01*
X23450Y30800D02*
Y31200D01*
X20400Y24037D02*
X21737D01*
X21750Y24050D01*
X17550D02*
X18850D01*
X18900Y24000D01*
X25550Y25500D02*
X26750Y26700D01*
X29300D01*
X25300Y23600D02*
X28583D01*
X29083Y23100D02*
X30050D01*
X28583Y23600D02*
X29083Y23100D01*
X24550Y24350D02*
X25300Y23600D01*
X24550Y24350D02*
Y25500D01*
X30050Y23081D02*
Y23100D01*
X42491Y40300D02*
X43050Y40859D01*
X38200Y40300D02*
X42491D01*
X37950Y40050D02*
X38200Y40300D01*
X37950Y37400D02*
Y40050D01*
X37150Y36600D02*
X37950Y37400D01*
X43050Y40859D02*
Y40950D01*
X37150Y35400D02*
Y36600D01*
D15*
X13000Y21000D02*
Y42000D01*
Y21000D02*
X46000D01*
Y42000D01*
X13000D02*
X46000D01*
D32*
X35400Y26769D02*
D03*
Y27831D02*
D03*
X36900D02*
D03*
Y26769D02*
D03*
X38550D02*
D03*
Y27831D02*
D03*
X40200D02*
D03*
Y26769D02*
D03*
D33*
X23450Y30000D02*
D03*
X24250D02*
D03*
X26200Y27800D02*
D03*
X25400D02*
D03*
X24250Y31200D02*
D03*
X23450D02*
D03*
X30250Y26700D02*
D03*
X29450D02*
D03*
X31000Y23100D02*
D03*
X30200D02*
D03*
X36200Y36600D02*
D03*
X37000D02*
D03*
Y35100D02*
D03*
X36200D02*
D03*
D34*
X21750Y24050D02*
D03*
Y24850D02*
D03*
X17550Y24050D02*
D03*
Y24850D02*
D03*
X32100Y36500D02*
D03*
Y37300D02*
D03*
X30300Y38150D02*
D03*
Y38950D02*
D03*
X27600Y29150D02*
D03*
Y29950D02*
D03*
D35*
X20400Y24037D02*
D03*
Y24863D02*
D03*
X18900Y24000D02*
D03*
Y24827D02*
D03*
D36*
X22641Y39582D02*
D03*
Y37818D02*
D03*
X19059D02*
D03*
Y39582D02*
D03*
X28191D02*
D03*
Y37818D02*
D03*
X24609D02*
D03*
Y39582D02*
D03*
D37*
X29000Y28135D02*
D03*
X29500D02*
D03*
X30000D02*
D03*
X30500D02*
D03*
X29000Y30065D02*
D03*
X29500D02*
D03*
X30000D02*
D03*
X30500D02*
D03*
D38*
X32102Y38250D02*
D03*
X32850D02*
D03*
X32476Y38998D02*
D03*
D39*
X28713Y33309D02*
D03*
D40*
X32748Y34309D02*
D03*
Y32309D02*
D03*
D41*
X20200Y31831D02*
X20850Y31181D01*
X17550Y36000D02*
X20200Y33350D01*
Y31831D02*
Y33350D01*
X33062Y32309D02*
X33959D01*
X32965D02*
X33062D01*
X20400Y24863D02*
X20420D01*
X20536Y24980D01*
Y25000D01*
X22031Y26494D01*
Y28819D01*
X18900Y24827D02*
X18918Y24845D01*
X20382D01*
X20400Y24863D01*
X27600Y29150D02*
X27602D01*
X27702Y29050D01*
Y28767D02*
Y29050D01*
Y28767D02*
X28119Y28350D01*
X28281D01*
X28496Y28135D02*
X29000D01*
X28281Y28350D02*
X28496Y28135D01*
X36000Y37200D02*
X36243Y37443D01*
X36318D01*
X17550Y36000D02*
Y39300D01*
X18900Y40650D01*
X32400D01*
X33750Y39300D01*
Y33094D02*
Y39300D01*
X32748Y32309D02*
X32965D01*
X33750Y33094D01*
X38700Y26250D02*
X39300D01*
X30200Y38150D02*
X30300D01*
X29250Y37200D02*
X30200Y38150D01*
X28947Y37200D02*
X29250D01*
X28329Y37818D02*
X28947Y37200D01*
X28191Y37818D02*
X28329D01*
X24609D02*
X28191D01*
X18150Y25350D02*
X18900D01*
X21450Y27900D01*
X17650Y24850D02*
X18150Y25350D01*
X17550Y24850D02*
X17650D01*
X21750D02*
Y25350D01*
X22200Y25800D01*
X33450Y26100D02*
X34050Y25500D01*
X40350D01*
X35550Y26250D02*
X36150D01*
X40350Y25500D02*
X41100Y26250D01*
Y38050D01*
X44000Y40950D01*
X38550Y26400D02*
X38700Y26250D01*
X38550Y26400D02*
Y26769D01*
X40167Y26736D02*
X40200Y26769D01*
X40167Y26367D02*
Y26736D01*
X40050Y26250D02*
X40167Y26367D01*
X39300Y26250D02*
X40050D01*
X36150D02*
X36750D01*
X36900Y26400D01*
Y26769D01*
X35400Y26400D02*
X35550Y26250D01*
X22031Y30000D02*
X23450D01*
X20850D02*
Y31181D01*
Y30000D02*
X21450Y29400D01*
Y27900D02*
Y29400D01*
X35400Y26400D02*
Y26769D01*
X26400Y33000D02*
X26481D01*
X26781Y33300D02*
X28704D01*
X26481Y33000D02*
X26781Y33300D01*
X31150Y23100D02*
Y24200D01*
X30450Y24900D02*
X31150Y24200D01*
X30450Y24900D02*
Y26650D01*
X27150Y24900D02*
X30450D01*
X26550Y25500D02*
X27150Y24900D01*
X30400Y26700D02*
X30450Y26650D01*
X36000Y36650D02*
Y37200D01*
Y36650D02*
X36050Y36600D01*
X29000Y28135D02*
Y30065D01*
X33959Y32309D02*
X36050Y34400D01*
Y35100D01*
X40050Y28350D02*
X40167Y28233D01*
Y27864D02*
Y28233D01*
Y27864D02*
X40200Y27831D01*
X36150Y28350D02*
X40050D01*
X33062Y31438D02*
X36150Y28350D01*
X33062Y31438D02*
Y32212D01*
X32965Y32309D02*
X33062Y32212D01*
X32871Y31125D02*
X34800Y29196D01*
X31625Y31125D02*
X32871D01*
X34800Y28313D02*
Y29196D01*
Y28313D02*
X35282Y27831D01*
X36900D02*
X38550D01*
X35400D02*
X36900D01*
X35282D02*
X35400D01*
X31625Y31125D02*
X31650Y31150D01*
X31400Y30900D02*
X31625Y31125D01*
X30981Y30900D02*
X31400D01*
X30500Y30419D02*
X30981Y30900D01*
X30500Y30065D02*
Y30419D01*
X31650Y31150D02*
Y34050D01*
X31909Y34309D01*
X32748D01*
X30500Y28135D02*
Y30065D01*
D42*
X15000Y24000D02*
D03*
Y39000D02*
D03*
D43*
X20850Y28819D02*
D03*
Y30000D02*
D03*
Y31181D02*
D03*
Y32362D02*
D03*
Y33543D02*
D03*
X22031Y28819D02*
D03*
Y30000D02*
D03*
Y31181D02*
D03*
Y32362D02*
D03*
Y33543D02*
D03*
D44*
X19149Y32697D02*
D03*
Y29665D02*
D03*
D45*
X44000Y40950D02*
D03*
X43000D02*
D03*
X42000D02*
D03*
X41000D02*
D03*
X40000D02*
D03*
X39000D02*
D03*
X38000D02*
D03*
X37000D02*
D03*
X36000D02*
D03*
X35000D02*
D03*
Y22950D02*
D03*
X36000D02*
D03*
X37000D02*
D03*
X38000D02*
D03*
X39000D02*
D03*
X40000D02*
D03*
X41000D02*
D03*
X42000D02*
D03*
X43000D02*
D03*
X44000D02*
D03*
D46*
X23550Y25500D02*
D03*
X24550D02*
D03*
X25550D02*
D03*
D47*
X26550D02*
D03*
D48*
X24200Y28100D02*
D03*
X36318Y37443D02*
D03*
X26250Y31200D02*
D03*
X39300Y26250D02*
D03*
X33300Y36000D02*
D03*
X29250Y37200D02*
D03*
X22200Y25800D02*
D03*
X33450Y26100D02*
D03*
X36150Y26250D02*
D03*
X26400Y33000D02*
D03*
X28200Y28350D02*
D03*
M02*
