M48
;Layer_Color=9474304
;FILE_FORMAT=2:4
INCH,LZ
;TYPE=PLATED
T1F00S00C0.0280
T2F00S00C0.0300
T3F00S00C0.0421
T4F00S00C0.0469
T5F00S00C0.1600
;TYPE=NON_PLATED
T6F00S00C0.1201
%
T01
X03345Y0261
X03615Y02625
X0393
X0282Y02835
X0242Y0281
X0222Y0258
X02625Y0312
X0264Y033
X02925Y0372
X0333Y036
X036318Y037443
T02
X035Y02295
X036
X037
X038
X039
X04
X041
X042
X043
X044
Y04095
X043
X042
X041
X04
X039
X038
X037
X036
X035
T03
X02085Y028819
X022031
Y03
X02085
Y031181
X022031
Y032362
X02085
Y033543
X022031
T04
X02355Y0255
X02455
X02555
X02655
T05
X015Y024
Y039
T06
X019149Y029665
Y032697
M30
