G04*
G04 #@! TF.GenerationSoftware,Altium Limited,Altium Designer,19.1.7 (138)*
G04*
G04 Layer_Color=16711935*
%FSLAX25Y25*%
%MOIN*%
G70*
G01*
G75*
%ADD16C,0.00394*%
D16*
X305768Y295331D02*
G03*
X305768Y295331I-1969J0D01*
G01*
X146701Y316350D02*
X159299D01*
X146701D02*
Y322650D01*
X159299D01*
Y316350D02*
Y322650D01*
X158193Y299457D02*
Y306543D01*
X144807Y299457D02*
Y306543D01*
Y299457D02*
X158193D01*
X144807Y306543D02*
X158193D01*
X146504Y286154D02*
Y292846D01*
X159496Y286154D02*
Y292846D01*
X146504D02*
X159496D01*
X146504Y286154D02*
X159496D01*
X146307Y330957D02*
Y338043D01*
X159693Y330957D02*
Y338043D01*
X146307D02*
X159693D01*
X146307Y330957D02*
X159693D01*
X141114Y240433D02*
Y269567D01*
X163752Y240433D02*
Y269567D01*
X141114D02*
X163752D01*
X141114Y240433D02*
X163752D01*
X287657Y283126D02*
Y298874D01*
X307343Y283126D02*
Y298874D01*
X287657Y283126D02*
X307343D01*
X287657Y298874D02*
X307343D01*
X230500Y266417D02*
X270500D01*
X230500Y243583D02*
Y266417D01*
Y243583D02*
X270500D01*
Y266417D01*
X398457Y266307D02*
X405543D01*
X398457Y279693D02*
X405543D01*
X398457Y266307D02*
Y279693D01*
X405543Y266307D02*
Y279693D01*
X365457Y266307D02*
X372543D01*
X365457Y279693D02*
X372543D01*
X365457Y266307D02*
Y279693D01*
X372543Y266307D02*
Y279693D01*
X381957Y266307D02*
X389043D01*
X381957Y279693D02*
X389043D01*
X381957Y266307D02*
Y279693D01*
X389043Y266307D02*
Y279693D01*
X350457Y266307D02*
X357543D01*
X350457Y279693D02*
X357543D01*
X350457Y266307D02*
Y279693D01*
X357543Y266307D02*
Y279693D01*
X250500Y377004D02*
X280500D01*
X250500D02*
Y399838D01*
X280500D01*
Y377004D02*
Y399838D01*
X311756Y363094D02*
Y374905D01*
X306244Y363094D02*
Y374905D01*
Y363094D02*
X311756D01*
X306244Y374905D02*
X311756D01*
X276303Y353859D02*
X311736D01*
X276303Y312324D02*
X311736D01*
X276303D02*
Y353859D01*
X311736Y312324D02*
Y353859D01*
X185083Y320000D02*
X207917D01*
X185083D02*
Y340000D01*
X207917Y320000D02*
Y340000D01*
X185083D02*
X207917D01*
X185083Y293500D02*
X207917D01*
Y273500D02*
Y293500D01*
X185083Y273500D02*
Y293500D01*
Y273500D02*
X207917D01*
X227004Y289500D02*
Y319500D01*
X249838D01*
Y289500D02*
Y319500D01*
X227004Y289500D02*
X249838D01*
M02*
