G04*
G04 #@! TF.GenerationSoftware,Altium Limited,Altium Designer,19.1.7 (138)*
G04*
G04 Layer_Color=8388736*
%FSLAX25Y25*%
%MOIN*%
G70*
G01*
G75*
%ADD31R,0.07690X0.06706*%
%ADD32R,0.05131X0.07099*%
%ADD33R,0.05131X0.07493*%
%ADD34R,0.05918X0.07887*%
%ADD35R,0.08800X0.06800*%
%ADD36R,0.06800X0.08800*%
%ADD37O,0.03556X0.10642*%
%ADD38R,0.07493X0.05131*%
%ADD39R,0.06312X0.03162*%
%ADD40R,0.09068X0.06312*%
%ADD41R,0.34658X0.42532*%
%ADD42R,0.09068X0.04737*%
%ADD43C,0.08800*%
%ADD44R,0.06706X0.06706*%
%ADD45C,0.06706*%
%ADD46C,0.06800*%
%ADD47C,0.07493*%
%ADD48R,0.07493X0.07493*%
%ADD49R,0.07493X0.07493*%
%ADD50C,0.05800*%
D31*
X145618Y319500D02*
D03*
X160382D02*
D03*
D32*
X158193Y303000D02*
D03*
X144807D02*
D03*
D33*
X147291Y289500D02*
D03*
X158709D02*
D03*
D34*
X147488Y334500D02*
D03*
X158512D02*
D03*
D35*
X321000Y290500D02*
D03*
Y279500D02*
D03*
X276000Y301000D02*
D03*
Y290000D02*
D03*
X313500Y389000D02*
D03*
Y400000D02*
D03*
X330000Y389000D02*
D03*
Y400000D02*
D03*
D36*
X191000Y244500D02*
D03*
X202000D02*
D03*
X304000Y267000D02*
D03*
X293000D02*
D03*
X311500Y231000D02*
D03*
X300500D02*
D03*
X371500Y366000D02*
D03*
X360500D02*
D03*
Y351000D02*
D03*
X371500D02*
D03*
D37*
X290000Y281354D02*
D03*
X295000D02*
D03*
X300000D02*
D03*
X305000D02*
D03*
X290000Y300646D02*
D03*
X295000D02*
D03*
X300000D02*
D03*
X305000D02*
D03*
D38*
X402000Y267685D02*
D03*
Y278315D02*
D03*
X369000Y267685D02*
D03*
Y278315D02*
D03*
X385500Y267685D02*
D03*
Y278315D02*
D03*
X354000Y267685D02*
D03*
Y278315D02*
D03*
D39*
X312740Y365260D02*
D03*
Y372740D02*
D03*
X305260Y369000D02*
D03*
D40*
X238413Y395819D02*
D03*
Y378181D02*
D03*
X202587D02*
D03*
Y395819D02*
D03*
X179913D02*
D03*
Y378181D02*
D03*
X144087D02*
D03*
Y395819D02*
D03*
D41*
X287130Y333091D02*
D03*
D42*
X327484Y343092D02*
D03*
Y323092D02*
D03*
D43*
X136500Y214500D02*
D03*
Y421500D02*
D03*
D44*
X154500Y259921D02*
D03*
D45*
Y250079D02*
D03*
D46*
X440500Y229500D02*
D03*
X430500D02*
D03*
X420500D02*
D03*
X410500D02*
D03*
X400500D02*
D03*
X390500D02*
D03*
X380500D02*
D03*
X370500D02*
D03*
X360500D02*
D03*
X350500D02*
D03*
Y409500D02*
D03*
X360500D02*
D03*
X370500D02*
D03*
X380500D02*
D03*
X390500D02*
D03*
X400500D02*
D03*
X410500D02*
D03*
X420500D02*
D03*
X430500D02*
D03*
X440500D02*
D03*
D47*
X235500Y255000D02*
D03*
X245500D02*
D03*
X255500D02*
D03*
X275500Y388500D02*
D03*
X265500D02*
D03*
X196500Y325000D02*
D03*
Y288500D02*
D03*
X238500Y294500D02*
D03*
Y304500D02*
D03*
D48*
X265500Y255000D02*
D03*
X255500Y388500D02*
D03*
D49*
X196500Y335000D02*
D03*
Y278500D02*
D03*
X238500Y314500D02*
D03*
D50*
X150000Y369000D02*
D03*
X264000Y330000D02*
D03*
X301500Y397500D02*
D03*
X321000Y376500D02*
D03*
X363176Y374426D02*
D03*
X265500Y286500D02*
D03*
X208500Y367500D02*
D03*
X174000Y369000D02*
D03*
X244500Y367500D02*
D03*
X339000Y390000D02*
D03*
X169500Y309000D02*
D03*
Y339000D02*
D03*
X166500Y285000D02*
D03*
X169500Y241500D02*
D03*
X406500Y259500D02*
D03*
X390000D02*
D03*
X373500D02*
D03*
X358500D02*
D03*
M02*
