G04*
G04 #@! TF.GenerationSoftware,Altium Limited,Altium Designer,19.1.7 (138)*
G04*
G04 Layer_Color=8421504*
%FSLAX25Y25*%
%MOIN*%
G70*
G01*
G75*
%ADD19R,0.06890X0.05906*%
%ADD20R,0.04331X0.06299*%
%ADD21R,0.04331X0.06693*%
%ADD22R,0.05118X0.07087*%
%ADD23R,0.08000X0.06000*%
%ADD24R,0.06000X0.08000*%
%ADD25O,0.02756X0.09843*%
%ADD26R,0.06693X0.04331*%
%ADD27R,0.05512X0.02362*%
%ADD28R,0.08268X0.05512*%
%ADD29R,0.33858X0.41732*%
%ADD30R,0.08268X0.03937*%
D19*
X145618Y319500D02*
D03*
X160382D02*
D03*
D20*
X158193Y303000D02*
D03*
X144807D02*
D03*
D21*
X147291Y289500D02*
D03*
X158709D02*
D03*
D22*
X147488Y334500D02*
D03*
X158512D02*
D03*
D23*
X321000Y290500D02*
D03*
Y279500D02*
D03*
X276000Y301000D02*
D03*
Y290000D02*
D03*
X313500Y389000D02*
D03*
Y400000D02*
D03*
X330000Y389000D02*
D03*
Y400000D02*
D03*
D24*
X191000Y244500D02*
D03*
X202000D02*
D03*
X304000Y267000D02*
D03*
X293000D02*
D03*
X311500Y231000D02*
D03*
X300500D02*
D03*
X371500Y366000D02*
D03*
X360500D02*
D03*
Y351000D02*
D03*
X371500D02*
D03*
D25*
X290000Y281354D02*
D03*
X295000D02*
D03*
X300000D02*
D03*
X305000D02*
D03*
X290000Y300646D02*
D03*
X295000D02*
D03*
X300000D02*
D03*
X305000D02*
D03*
D26*
X402000Y267685D02*
D03*
Y278315D02*
D03*
X369000Y267685D02*
D03*
Y278315D02*
D03*
X385500Y267685D02*
D03*
Y278315D02*
D03*
X354000Y267685D02*
D03*
Y278315D02*
D03*
D27*
X312740Y365260D02*
D03*
Y372740D02*
D03*
X305260Y369000D02*
D03*
D28*
X238413Y395819D02*
D03*
Y378181D02*
D03*
X202587D02*
D03*
Y395819D02*
D03*
X179913D02*
D03*
Y378181D02*
D03*
X144087D02*
D03*
Y395819D02*
D03*
D29*
X287130Y333091D02*
D03*
D30*
X327484Y343092D02*
D03*
Y323092D02*
D03*
M02*
