G04*
G04 #@! TF.GenerationSoftware,Altium Limited,Altium Designer,19.1.7 (138)*
G04*
G04 Layer_Color=255*
%FSLAX25Y25*%
%MOIN*%
G70*
G01*
G75*
%ADD52C,0.08000*%
%ADD53R,0.05906X0.05906*%
%ADD54C,0.05906*%
%ADD55C,0.06000*%
%ADD56C,0.06693*%
%ADD57R,0.06693X0.06693*%
%ADD58R,0.06693X0.06693*%
D52*
X136500Y214500D02*
D03*
Y421500D02*
D03*
D53*
X154500Y259921D02*
D03*
D54*
Y250079D02*
D03*
D55*
X440500Y229500D02*
D03*
X430500D02*
D03*
X420500D02*
D03*
X410500D02*
D03*
X400500D02*
D03*
X390500D02*
D03*
X380500D02*
D03*
X370500D02*
D03*
X360500D02*
D03*
X350500D02*
D03*
Y409500D02*
D03*
X360500D02*
D03*
X370500D02*
D03*
X380500D02*
D03*
X390500D02*
D03*
X400500D02*
D03*
X410500D02*
D03*
X420500D02*
D03*
X430500D02*
D03*
X440500D02*
D03*
D56*
X235500Y255000D02*
D03*
X245500D02*
D03*
X255500D02*
D03*
X275500Y388500D02*
D03*
X265500D02*
D03*
X196500Y325000D02*
D03*
Y288500D02*
D03*
X238500Y294500D02*
D03*
Y304500D02*
D03*
D57*
X265500Y255000D02*
D03*
X255500Y388500D02*
D03*
D58*
X196500Y335000D02*
D03*
Y278500D02*
D03*
X238500Y314500D02*
D03*
M02*
